<svg width="387" height="373" viewBox="0 0 387 373" fill="none" xmlns="http://www.w3.org/2000/svg">
<path d="M136.191 168.936C136.191 173.488 137.84 185.144 139.932 191.428C141.6 196.437 142.437 200.602 141.819 203.309C141.291 205.618 137.041 205.204 133.512 204.791C123.715 203.645 116.231 193.973 112.678 188.964C109.358 184.286 109.549 178.953 108.306 176.871C107.699 175.854 106.239 175.614 104.984 175.814C99.5519 176.68 94.9972 180.591 89.9947 183.931C84.7034 187.463 78.7594 189.771 62.3529 189.99C57.4862 190.055 55.0146 188.533 52.5227 188.114C50.0329 187.695 47.5202 189.771 45.6466 192.053C44.638 193.282 45.0096 195.574 45.4218 197.256C46.8553 203.106 52.9037 207.255 54.9959 212.689C56.8926 217.615 58.3247 222.688 61.235 227.696C64.0572 232.554 68.7294 233.543 70.8091 235.413C71.807 236.31 72.0644 237.695 72.0706 238.952C72.0769 240.209 71.6647 241.447 70.8341 242.291C67.3017 245.881 62.509 245.637 60.2232 246.881C59.0476 247.521 58.3496 248.951 58.5432 249.795C59.502 253.976 67.4678 253.128 72.6764 255.429C80.6415 258.948 85.8041 267.71 87.4716 272.719C89.1391 277.728 90.8004 282.718 92.674 287.727C94.706 293.159 99.956 294.824 101.83 296.694C102.695 297.558 102.467 298.976 101.848 299.82C98.9856 303.729 93.7357 303.166 92.0682 304.41C91.3179 304.97 92.0494 306.48 92.8801 307.324C96.4125 310.914 102.442 311.082 107.444 311.301C112.953 311.542 118.68 309.431 123.682 309.213C128.887 308.985 133.668 312.333 138.465 314.415C141.024 315.526 140.776 318.999 140.769 321.287C140.762 323.782 144.922 324.426 146.178 325.465C146.66 325.863 144.96 326.915 145.147 327.547C145.749 329.574 150.331 329.016 153.447 328.604C159.18 327.844 162.822 322.788 165.326 317.986C167.894 313.061 174.888 313.183 186.11 312.552C198.594 311.849 215.282 309.031 218.617 305.261C222.306 301.09 222.777 317.736 227.355 321.294C231.576 324.575 238.577 324.014 243.58 324.22C244.888 324.274 243.636 324.839 242.587 325.671C241.538 326.503 240.713 327.741 240.289 326.109C237.243 314.405 243.187 309.031 245.06 304.022C245.552 302.708 246.509 301.527 247.758 300.683C250.376 298.914 253.591 299.001 256.083 299.208C261.562 299.661 266.069 304.829 271.896 307.33C280.336 310.953 286.054 304.429 290.851 301.309C293.325 299.699 294.398 296.512 295.441 294.017C297.387 289.362 293.999 284.019 294.192 269.874C294.234 266.846 296.047 266.085 297.302 265.453C301.961 263.109 307.289 262.333 310.842 257.749C312.499 255.613 313.134 252.74 315.002 250.452C316.868 248.164 320.616 247.725 323.945 247.106C326.405 246.649 326.874 242.735 327.505 240.653C328.8 236.378 318.58 236.895 313.578 233.568C306.912 229.136 304.416 221.487 301.287 216.478C299.854 214.185 299.407 211.47 299.195 208.975C298.724 203.443 307.289 201.877 312.291 200.208C318.329 198.193 326.025 198.125 331.027 196.456C333.519 195.624 336.03 194.786 338.109 193.542C339.125 192.934 339.365 191.472 338.34 190.421C327.613 179.419 302.342 188.52 293.199 189.152C281.458 189.963 274.863 191.447 267.375 192.691C259.783 193.953 254.053 196.024 247.383 197.487C240.438 199.011 232.819 199.776 226.149 200.614C219.082 201.502 213.659 203.953 208.244 204.991C201.255 206.331 193.698 207.28 186.385 207.911C180.683 208.404 174.938 209.781 169.729 211.451C163.377 213.487 157.451 214.784 152.448 216.66C147.12 218.658 141.637 221.862 135.173 226.446C132.173 228.574 130.783 231.455 130.571 233.95C129.984 240.838 142.836 241.885 158.731 242.51C172.967 243.07 199.769 242.723 214.396 242.516C239.808 242.158 258.15 240.647 266.263 239.809C280.72 238.316 288.952 236.895 295.841 236.263C297.317 236.128 298.545 235.644 296.709 235.432C283.257 233.874 265.82 233.968 252.186 232.93C244.555 232.349 238.627 232.305 236.136 231.267C228.131 227.932 225.3 213.158 222.596 206.48C219.946 199.935 218.63 193.148 217.387 187.095C215.634 178.558 214.883 169.411 217.574 162.908C219.856 157.394 227.348 156.854 234.212 155.391C243.815 153.344 251.48 153.928 258.775 152.89C270.971 151.154 295.847 151.427 311.042 148.938C316.975 147.966 320.204 141.447 322.09 135.2C323.886 129.253 321.066 123.925 318.574 121.637C314.223 117.641 308.588 116.834 303.791 113.714C298.991 110.591 299.819 103.102 297.54 97.6684C295.409 92.5888 291.101 88.495 288.79 82.467C287.82 79.9372 288.578 75.6385 287.959 73.5124C287.341 71.3864 286.104 71.3864 284.849 71.7991C279.35 73.6069 274.863 77.2143 260.736 77.0205C253.747 76.9246 251.955 67.6595 248.62 62.6507C245.285 57.6419 242.787 52.6519 239.876 47.6431C238.37 45.0512 236.129 43.4598 233.637 43.0408C232.399 42.8327 231.145 43.4473 230.302 44.2789C226.717 47.8158 226.549 53.8525 224.675 58.8613C222.607 64.3907 216.581 69.6855 211.154 72.6307C203.774 76.6358 191.175 72.2368 186.173 70.142C181.175 68.049 176.187 65.5584 171.184 64.9269C166.015 64.2743 160.373 62.6319 155.152 60.9749C152.493 60.1308 152.017 56.3913 150.774 54.7217C147.549 50.3894 140.788 62.6069 136.21 66.3713C131.733 70.0531 126.224 70.9611 121.221 73.6688C119.986 74.3377 118.73 74.713 118.711 74.3066C118.466 68.9909 126.174 65.9836 130.14 61.8128C134.181 57.5629 142.412 61.7815 147.208 63.0509C152.239 64.3823 152.005 53.9025 152.223 50.1319C152.471 45.8637 150.356 60.1057 149.725 65.1144C148.985 70.9948 147.858 77.6145 147.227 83.8677C146.581 90.2679 144.935 100.076 143.898 107.842C143.097 113.845 145.347 117.647 146.59 119.729C149.562 124.709 162.772 122.662 172.789 121.211C192.926 118.295 209.437 113.908 215.901 112.87C221.086 112.037 224.863 111.407 226.118 111.613C227.466 111.834 207.138 115.133 179.478 118.885C163.048 121.114 155.365 120.574 142.349 121.199C111.644 122.674 90.8129 120.173 90.3944 117.678C89.5408 112.589 94.1229 107.68 96.009 102.465C98.0684 96.77 94.9723 91.4215 95.8029 87.6508C97.0626 81.9322 94.1479 102.627 93.1049 116.978C92.5269 124.931 85.0047 128.065 79.59 129.953C75.8615 130.166 72.5016 130.579 68.7731 131.204C66.2812 131.417 62.5715 131.417 58.7493 131.417" stroke="#FFEA88" stroke-width="80" stroke-linecap="round"/>
<path d="M156.22 2.33396C161.166 2.2776 165.547 4.11809 169.275 6.3076C173.039 8.5182 176.763 11.4892 179.892 13.7988L180.339 14.1416C182.529 15.884 184.046 18.0421 185.196 19.9023C185.81 20.8947 186.395 21.9317 186.898 22.8086C187.427 23.7279 187.895 24.5237 188.377 25.247C189.219 26.5101 189.647 28.0953 189.911 29.25C190.219 30.5959 190.481 32.2281 190.713 34.0683C191.178 37.7611 191.561 42.654 191.876 48.5224C192.506 60.28 192.877 76.277 193.022 95.1064L193.057 97.9814C193.17 104.864 193.489 112.989 193.829 122.714C194.216 133.791 194.626 146.839 194.771 162.205L194.794 163.729C195.108 179.346 197.913 191 199.643 200.614L199.826 201.597C200.283 204.096 200.921 208.738 201.183 230.076C201.48 254.379 201.482 300.659 200.611 325.15C200.179 337.323 199.524 344.121 198.653 348.062C198.219 350.031 197.636 351.754 196.674 353.148C195.679 354.591 194.531 355.308 193.793 355.699L193.503 355.848C189.859 357.678 186.043 359.031 182.641 360.311C179.354 361.546 176.301 362.763 173.365 364.404L172.779 364.738C164.97 369.282 157.259 371.683 138.1 371.845L136.209 371.853C128.612 371.86 123.356 367.545 121.3 366.228L120.932 366.007C115.569 363.091 113.418 357.923 112.44 352.439C111.727 348.435 111.524 343.573 111.404 338.172L111.297 332.602C111.088 321.885 115.973 315.597 117.532 312.987L118.169 311.923L119.23 311.278C122.776 309.125 126.923 307.773 130.898 307.105L131.297 307.038L131.701 307.036C134.737 307.021 137.5 308.148 142.527 310.379C145.051 311.499 146.189 314.453 145.069 316.977C143.949 319.501 140.996 320.639 138.472 319.52C133.96 317.517 132.658 317.127 132.07 317.053C129.66 317.501 127.345 318.264 125.399 319.276C123.523 322.262 121.169 325.94 121.295 332.407L121.407 338.06C121.526 343.316 121.703 347.416 122.285 350.685C123.036 354.898 124.244 356.426 125.708 357.222L126.544 357.692C130.531 360.015 131.787 361.857 136.2 361.853L137.998 361.846C156.17 361.694 161.971 359.456 167.751 356.094L168.481 355.678C172.129 353.638 175.778 352.206 179.122 350.949C182.61 349.638 185.652 348.554 188.559 347.137C188.643 346.886 188.759 346.492 188.889 345.905C189.54 342.956 190.184 336.992 190.617 324.796C191.479 300.549 191.481 254.46 191.184 230.199C190.925 209.043 190.293 204.913 189.936 203.075L189.801 202.386C188.158 193.256 185.133 180.584 184.796 163.924L184.772 162.3C184.628 147.06 184.221 134.11 183.835 123.063C183.498 113.43 183.173 105.163 183.058 98.125L183.022 95.1836C182.877 76.4096 182.509 60.589 181.891 49.0576C181.581 43.2818 181.213 38.6621 180.792 35.3174C180.581 33.6392 180.366 32.3709 180.162 31.4785C180.036 30.9273 179.943 30.6586 179.917 30.5791C179.293 29.6262 178.728 28.6624 178.228 27.791C177.665 26.8119 177.195 25.9764 176.691 25.1621C175.747 23.6351 174.95 22.6335 174.119 21.9717L173.952 21.8437C170.363 19.1938 167.375 16.7882 164.212 14.9306C161.326 13.2357 158.863 12.3637 156.56 12.334L156.102 12.3388C149.028 12.5949 143.104 14.4019 137.073 17.5215L135.866 18.1631C131.726 20.417 127.762 22.0302 124.156 24.497C120.588 26.9382 119.741 28.7215 119.826 30.1084L119.885 30.8974C120.229 34.8079 121.295 38.22 122.477 41.1377C123.111 42.7057 123.766 44.0986 124.38 45.4101C124.872 46.4603 125.437 47.6567 125.84 48.7519L126.002 49.2148L126.076 49.4609C126.781 52.0105 125.369 54.6919 122.83 55.5342C120.291 56.3763 117.556 55.0707 116.597 52.6054L116.51 52.3633L116.343 51.9131C116.138 51.4037 115.814 50.6993 115.323 49.6513C114.721 48.3654 113.957 46.7413 113.208 44.8906C111.794 41.3976 110.383 36.9858 109.924 31.7773L109.845 30.7256C109.411 23.7031 114.38 19.0698 118.51 16.2441C122.603 13.444 128.219 10.9397 131.085 9.37986L131.793 8.999C139.114 5.11357 146.661 2.6743 155.739 2.34568L156.22 2.33396Z" fill="#053564"/>
<path d="M48.0291 299.204C48.0291 296.443 50.2676 294.204 53.0291 294.204C55.7905 294.204 58.0291 296.443 58.0291 299.204C58.0291 303.446 58.034 307.228 58.3054 310.158C58.5543 312.845 59.0212 314.783 59.5339 316.595C60.2714 318.458 60.9817 320.516 61.6414 322.343C62.3632 324.342 63.0745 326.205 63.8835 327.9C65.5427 331.374 67.2672 333.391 69.3279 334.284L70.5349 334.796C76.5868 337.303 82.9611 339.102 91.0291 341.685L92.5457 342.182C96.0958 343.362 99.7052 344.658 103.249 345.25C107.417 345.947 109.345 345.27 110.266 344.243L111.236 343.176C112.197 342.132 113.128 341.173 113.997 340.41C114.58 339.899 115.278 339.348 116.061 338.904C116.806 338.483 118.008 337.94 119.507 337.94L119.763 337.945C122.405 338.079 124.507 340.264 124.507 342.94C124.506 345.266 122.918 347.22 120.766 347.779C120.717 347.82 120.658 347.869 120.592 347.928C120.097 348.361 119.461 349.008 118.62 349.921L117.708 350.925C113.145 356.006 106.478 355.928 101.6 355.113C97.2279 354.383 92.5745 352.74 89.2957 351.642L87.9793 351.209C80.3629 348.771 73.3075 346.768 66.6716 344.02L65.3503 343.459C59.9695 341.126 56.8829 336.447 54.8591 332.209C53.8267 330.047 52.9786 327.799 52.2351 325.739C51.4617 323.597 50.8357 321.763 50.1472 320.049L50.0515 319.81L49.9802 319.562C49.3447 317.342 48.6835 314.708 48.3474 311.08C48.0241 307.59 48.0291 303.29 48.0291 299.204Z" fill="#053564"/>
<path d="M19.123 236.961C20.6495 234.66 23.7525 234.031 26.0536 235.557C28.3546 237.084 28.9822 240.187 27.456 242.488C26.3698 244.126 25.893 245.054 25.6191 245.816C25.3717 246.505 25.2091 247.281 25.0839 248.695C25.3831 262.893 27.383 268.949 30.7431 274.349C33.9864 276.489 36.683 278.423 39.6962 280.19C42.8514 282.041 45.7384 283.309 48.6191 283.783L49.5663 283.932C54.3525 284.658 59.8906 285.038 64.9316 284.83C70.5508 284.598 74.6462 283.663 76.6454 282.413L79.2265 280.79C81.8249 279.151 84.4295 277.506 86.6347 276.234C88.1041 275.387 89.5781 274.596 90.8847 274.05C91.5329 273.779 92.2937 273.502 93.0878 273.333C93.7087 273.201 94.9606 272.992 96.3574 273.393L96.6386 273.482L96.8798 273.572C99.3351 274.557 100.613 277.306 99.7441 279.836C99.0201 281.944 97.027 283.255 94.912 283.211C94.8629 283.23 94.8057 283.25 94.7421 283.276C94.034 283.572 92.9995 284.107 91.6318 284.896C90.2646 285.685 88.7455 286.62 87.1171 287.64L81.9482 290.891C77.6018 293.61 71.2389 294.578 65.3437 294.821C59.59 295.059 53.4043 294.629 48.0536 293.817L46.9951 293.65C42.3888 292.892 38.2824 290.955 34.6367 288.816C31.1283 286.759 27.4335 284.117 24.3788 282.133L23.496 281.559L22.9189 280.679C17.8464 272.928 15.3974 264.927 15.08 248.63L15.0751 248.378L15.0956 248.127L15.1611 247.394C15.329 245.7 15.608 244.104 16.2079 242.434C16.8809 240.562 17.865 238.857 19.123 236.961Z" fill="#053564"/>
<path d="M10.59 164.936C12.2813 162.754 15.4218 162.355 17.6046 164.047C19.7874 165.738 20.1856 168.879 18.4943 171.061C16.5364 173.588 15.5038 175.157 14.879 176.227C14.2144 177.366 14.0425 177.849 13.4552 179.018L13.422 179.084L13.3859 179.15C12.0194 181.679 10.8336 186.916 10.2999 193.591C9.80134 199.827 9.92677 206.604 10.6681 212.169C13.3872 218.396 17.6472 223.891 23.3195 226.016L23.8839 226.215C26.8434 227.209 31.8823 228.131 37.7716 228.581C43.978 229.055 50.6279 228.966 56.046 228.081L56.8361 227.946C60.7887 227.248 64.7664 226.156 68.0245 224.985C69.7612 224.361 71.2256 223.74 72.3341 223.18C73.534 222.573 73.9635 222.213 73.9718 222.207C75.917 220.247 79.0831 220.235 81.0431 222.181C83.0029 224.126 83.0146 227.292 81.0695 229.252C79.907 230.423 78.3 231.368 76.8458 232.103C75.277 232.896 73.4154 233.674 71.4054 234.396C67.638 235.75 63.1083 236.994 58.5656 237.796L57.6573 237.95C51.2212 239.001 43.731 239.065 37.0099 238.552C30.7798 238.076 24.7644 237.071 20.6163 235.666L19.8126 235.38C10.1939 231.777 4.34747 222.985 1.19153 215.439L0.945435 214.852L0.854614 214.223C-0.0854203 207.698 -0.234983 199.888 0.332154 192.794C0.87892 185.955 2.1501 178.98 4.53528 174.498C4.83501 173.897 5.38924 172.651 6.24329 171.187C7.15138 169.632 8.45445 167.693 10.59 164.936Z" fill="#053564"/>
<path d="M106.982 26.975C109.506 25.8551 112.46 26.9932 113.58 29.517C114.7 32.041 113.562 34.9956 111.038 36.1156C105.806 38.4371 103.871 39.1085 102.019 39.727C95.6977 42.378 89.3875 45.497 83.0452 49.1352L81.7659 49.8754L81.7581 49.8803C79.9259 50.9462 78.0373 51.9518 76.3206 52.8862C74.5619 53.8433 72.9317 54.7528 71.4026 55.7221C68.5497 57.5306 66.2412 59.4318 64.5081 61.8461L64.1692 62.3354C63.5136 63.3188 62.9243 64.8897 62.3645 67.3022C61.7954 69.7553 61.4153 72.2818 60.8177 75.4194C59.7599 80.9725 58.1142 88.0519 53.2142 93.2299L52.7298 93.724C50.6491 95.7799 47.8703 96.7682 46.6204 97.2289L46.1849 97.3959C42.4883 98.9419 39.1472 100.225 36.0745 101.932C33.2685 103.491 31.0542 105.219 29.4866 107.381L29.181 107.82C23.9263 115.702 19.2579 120.817 21.428 129.163L21.6292 129.968C22.5936 134.002 22.9903 138.173 23.5042 141.623C24.0803 145.492 24.8667 149.188 26.6751 153.108L27.0472 153.945C27.8851 155.902 28.5164 157.874 29.055 159.687C29.7073 161.883 30.1716 163.649 30.7767 165.461C31.955 168.992 33.1766 171.048 35.0755 172.282L35.6018 172.615C38.2526 174.237 41.1375 175.276 43.5481 175.745C44.8345 175.995 45.8497 176.055 46.5257 176.016C46.709 176.005 46.8405 175.988 46.928 175.974C49.093 174.651 51.9512 175.16 53.5159 177.225C55.1834 179.426 54.7502 182.562 52.5491 184.23L52.2151 184.468C50.525 185.604 48.5517 185.915 47.1077 185.999C45.3958 186.099 43.5199 185.926 41.6399 185.561C38.1135 184.875 34.0919 183.417 30.3675 181.135L29.6272 180.667C24.8027 177.533 22.6646 172.745 21.2903 168.627C20.619 166.616 20.0088 164.355 19.4681 162.535C18.9627 160.833 18.46 159.296 17.8587 157.891L17.594 157.296C15.2147 152.139 14.2516 147.38 13.6136 143.096C12.9893 138.904 12.7183 135.696 11.9173 132.351L11.7503 131.68C8.18715 117.976 16.7735 108.404 20.8606 102.273L21.1243 101.886C23.8782 97.9276 27.5538 95.2254 31.2181 93.1899C34.9209 91.1329 39.0168 89.5545 42.3265 88.1703L43.0901 87.8637C43.3345 87.7688 43.5621 87.6828 43.7522 87.6098C44.1714 87.4488 44.4818 87.3248 44.7571 87.1996C45.2743 86.9645 45.5246 86.7855 45.7015 86.6108L45.9632 86.3432C48.6268 83.5241 49.9207 79.1799 50.9935 73.5483C51.4954 70.9132 51.9995 67.73 52.6233 65.0414C53.2566 62.3121 54.1691 59.3082 55.8489 56.7885L56.1175 56.393C58.9165 52.3504 62.4911 49.5306 66.0481 47.2758C67.8763 46.1169 69.7541 45.0746 71.5393 44.103C72.9097 43.3571 74.2046 42.6645 75.471 41.9545L76.7298 41.2358C83.9173 37.0368 91.093 33.4574 98.3079 30.4399L98.4788 30.3686L98.6556 30.309L99.9075 29.8842C101.269 29.4064 103.123 28.687 106.982 26.975Z" fill="#053564"/>
<path d="M359.423 148.755C359.423 145.156 359.413 142.069 359.17 139.801C358.692 137.245 358.311 132.854 357.875 128.317C357.419 123.571 356.871 118.262 356.074 113.369C353.205 106.469 350.857 100.128 346.82 94.5541L346.413 94.0033C344.229 91.0976 341.358 88.6912 338.054 86.2738C335.167 84.1623 331.51 81.7577 328.5 79.2718L327.907 78.7738C321.323 73.1402 318.329 65.6114 316.262 58.4671L315.859 57.0443C315.217 54.7167 314.76 52.4075 314.361 50.3021C313.951 48.1322 313.614 46.2499 313.187 44.4652C312.41 41.2164 311.502 39.1245 310.182 37.7162C310.16 37.7116 310.138 37.7063 310.114 37.7015C309.497 37.5768 308.555 37.463 307.234 37.3763C304.6 37.2034 301.129 37.1737 297.048 37.1419C289.357 37.0821 279.665 37.0226 271.597 35.7181L270.82 35.5882C269.511 35.3603 267.967 34.8999 266.517 34.0824C265.176 33.3265 263.598 32.0789 262.624 30.1214L262.437 29.721C261.576 27.7342 260.928 25.6103 260.366 23.7376C259.776 21.7709 259.27 20.047 258.639 18.4203C257.477 15.4275 256.154 13.4856 254.119 12.3197L253.702 12.097C251.437 10.9673 243.962 9.17561 233.97 10.4212L232.995 10.5521C230.306 10.935 227.71 11.1776 225.327 11.3929C222.9 11.6122 220.745 11.7989 218.727 12.0707C214.894 12.5866 212.235 13.3392 210.287 14.6263L209.906 14.891C206.523 17.3711 203.498 20.4623 201.273 23.3128C200.165 24.7335 199.303 26.0332 198.711 27.1009C198.416 27.6332 198.209 28.0707 198.073 28.4066C197.93 28.7613 197.908 28.9036 197.914 28.8646L188.049 27.2289C188.332 25.5193 189.125 23.7666 189.966 22.2503C190.859 20.6397 192.028 18.905 193.39 17.1605C196.105 13.6805 199.777 9.91814 203.994 6.82651L204.377 6.55308C208.353 3.78469 213.011 2.75028 217.393 2.1605C219.679 1.85266 222.09 1.64508 224.428 1.43394C226.809 1.21884 229.176 0.994786 231.586 0.651709L232.693 0.503272C244.08 -0.921149 253.668 0.905058 258.165 3.1478L258.672 3.4105C263.824 6.18081 266.376 10.7185 267.961 14.8011C268.767 16.8775 269.396 19.0346 269.944 20.8626C270.473 22.6227 270.934 24.1 271.465 25.39C271.573 25.4476 271.721 25.5148 271.907 25.5775C272.114 25.6469 272.331 25.7 272.536 25.7357L273.221 25.8509C280.349 27.002 289.209 27.0814 297.126 27.1429C301.1 27.1738 304.902 27.2016 307.89 27.3978C309.38 27.4957 310.836 27.6448 312.097 27.8998C313.034 28.0893 314.744 28.4879 316.15 29.6107L316.428 29.846L316.785 30.1761C320.413 33.6251 321.954 38.1277 322.913 42.139C323.411 44.2224 323.806 46.4314 324.187 48.4427C324.579 50.5184 324.974 52.4808 325.499 54.3822L325.877 55.7191C327.791 62.3065 330.087 67.4767 334.409 71.1751L334.927 71.6107C337.536 73.7671 340.426 75.6188 343.958 78.2025C347.499 80.793 351.325 83.8941 354.407 87.9945L354.902 88.6654C359.295 94.7324 362.046 101.561 364.469 107.492L365.528 110.063L365.751 110.595L365.847 111.163C366.758 116.591 367.356 122.436 367.829 127.36C368.292 132.177 368.614 135.789 368.959 137.745L369.028 138.115L369.07 138.324L369.094 138.535C369.43 141.503 369.423 145.291 369.423 148.755C369.423 151.517 367.184 153.755 364.423 153.755C361.662 153.755 359.423 151.517 359.423 148.755ZM197.914 28.8646C197.462 31.5888 194.887 33.4306 192.163 32.9789C189.439 32.5269 187.597 29.9528 188.049 27.2289L197.914 28.8646Z" fill="#053564"/>
<path d="M293.629 128.078C296.268 127.641 298.767 129.356 299.331 131.941L299.38 132.192L299.484 132.75C300.1 135.735 302.134 141.617 305.852 147.093L305.939 147.214C306.392 147.813 307.137 148.315 308.585 148.584C310.226 148.889 312.41 148.807 315.028 148.349C320.336 147.419 325.73 145.303 329.577 144.021C337.216 141.474 347.427 140.14 356.688 142.107L357.154 142.211C361.937 143.348 365.818 146.144 368.965 149.286C372.203 152.518 374.952 156.41 377.313 159.951L377.781 160.668C382.53 168.091 384.528 175.991 386.522 185.917L386.629 186.447L386.619 186.988C386.473 195.367 385.488 201.64 383.81 206.858C382.333 211.451 380.376 215.036 378.262 218.332L377.348 219.73C376.739 220.644 375.97 221.803 374.655 223.213C373.374 224.586 371.673 226.095 369.182 227.973C366.977 229.635 363.841 229.195 362.179 226.989C360.517 224.784 360.958 221.65 363.163 219.987C365.36 218.331 366.582 217.207 367.343 216.391C368.07 215.612 368.465 215.026 369.027 214.183L369.836 212.948C371.672 210.086 373.162 207.304 374.291 203.796C375.56 199.849 376.442 194.747 376.607 187.348C374.68 177.837 372.95 171.666 369.353 166.05L368.993 165.498C366.683 162.033 364.391 158.849 361.901 156.363C359.577 154.043 357.334 152.593 355.065 151.996L354.611 151.888C347.481 150.374 339.112 151.384 332.739 153.508C329.58 154.561 323.027 157.101 316.753 158.199C313.58 158.755 310.064 159.029 306.759 158.416C303.464 157.804 300.126 156.246 297.8 153.026L297.579 152.71C293.113 146.132 290.546 138.991 289.668 134.657L289.514 133.829L289.478 133.574C289.178 130.946 290.99 128.516 293.629 128.078Z" fill="#053564"/>
<path d="M302.094 199.275C303.178 196.735 306.115 195.555 308.655 196.639C311.51 197.857 314.867 200.592 317.771 203.046C320.98 205.757 324.127 208.571 327.226 210.977L327.617 211.268C329.602 212.692 332.138 213.646 336.335 214.341C340.937 215.104 346.934 215.474 355.658 216.07L356.046 216.101C364.12 216.833 368.62 222.959 371.157 225.998L371.53 226.464C375.238 231.315 374.578 237.149 373.416 241.484C372.788 243.823 371.91 246.118 371.08 248.16C370.309 250.055 369.641 251.592 369.066 253.068L368.826 253.698C365.957 261.356 361.509 267.993 356.861 274.35L355.928 275.619C350.453 283.035 342.751 288.236 332.968 291.193L332.015 291.471C320.232 294.812 309.904 290.582 305.593 287.061L305.405 286.907L305.232 286.735C303.299 284.814 301.85 282.609 300.782 280.483C299.607 278.145 298.912 275.896 298.263 272.043L308.125 270.384C308.666 273.599 309.125 274.814 309.717 275.993C310.377 277.305 311.182 278.499 312.117 279.47C314.424 281.207 321.259 284.127 329.287 281.851L330.067 281.622C338.056 279.21 343.845 275.149 347.883 269.679L348.799 268.431C353.33 262.23 357.088 256.524 359.461 250.191L359.728 249.491C360.375 247.829 361.168 245.985 361.816 244.392C362.607 242.447 363.295 240.616 363.757 238.893C364.675 235.471 364.391 233.678 363.636 232.61L363.48 232.406C360.333 228.635 358.423 226.415 355.285 226.074L354.977 226.047C346.531 225.471 339.905 225.069 334.7 224.206C329.535 223.35 325.238 221.969 321.459 219.154L321.094 218.876C317.782 216.305 314.225 213.141 311.318 210.685C308.106 207.971 305.933 206.35 304.73 205.836C302.19 204.752 301.011 201.815 302.094 199.275ZM302.364 266.284C305.087 265.825 307.666 267.661 308.125 270.384L298.263 272.043C297.805 269.32 299.641 266.742 302.364 266.284Z" fill="#053564"/>
<path d="M327.933 286.958C327.933 284.197 330.172 281.959 332.933 281.958C335.695 281.958 337.933 284.197 337.933 286.958C337.933 290.655 337.63 296.135 336.831 301.636C336.052 306.997 334.723 312.985 332.39 317.3C328.656 324.208 323.731 331.801 317.232 336.638L316.598 337.097C308.864 342.552 301.38 345.342 289.881 346.37L288.756 346.463C284.999 346.755 280.055 347.674 274.683 349.361L273.604 349.708C273.558 349.724 273.54 349.671 273.399 349.954C273.166 350.423 272.946 351.25 272.774 352.685C272.692 353.372 272.633 354.075 272.562 354.88C272.495 355.645 272.417 356.519 272.3 357.368C272.109 358.748 271.718 361.009 270.345 362.908L270.057 363.282C266.489 367.65 261.761 369.712 255.595 370.772C250.393 371.666 243.644 371.928 234.908 372.081L231.041 372.142C224.29 372.238 219.225 369.412 215.2 366.129C213.229 364.522 211.429 362.74 209.815 361.122C208.157 359.458 206.713 357.987 205.215 356.677L204.382 355.95C203.535 355.198 202.663 354.395 201.917 353.723C200.839 352.754 199.921 351.966 199.133 351.399C197.912 350.521 196.915 350.117 195.522 349.642L194.899 349.432L194.657 349.345C192.193 348.383 190.891 345.646 191.737 343.108C192.583 340.57 195.267 339.162 197.815 339.871L198.061 339.946L198.773 340.184C200.491 340.768 202.595 341.57 204.971 343.28C206.238 344.191 207.503 345.297 208.605 346.289C209.494 347.088 210.257 347.794 210.988 348.443L211.713 349.075L211.75 349.108C213.588 350.711 215.334 352.492 216.897 354.06C218.519 355.687 219.993 357.135 221.521 358.381C224.495 360.807 227.333 362.194 230.898 362.143L234.806 362.081C243.526 361.926 249.514 361.67 253.901 360.916C258.545 360.118 260.674 358.874 262.171 357.122C262.205 357.005 262.301 356.674 262.394 355.997C262.473 355.431 262.532 354.793 262.6 354.009C262.665 353.266 262.739 352.38 262.845 351.498C263.205 348.482 264.214 342.276 270.47 340.211L271.678 339.823C277.693 337.933 283.386 336.851 287.98 336.494L288.959 336.413C298.934 335.527 304.7 333.252 310.835 328.925L311.285 328.599C315.917 325.145 319.99 319.212 323.594 312.545C325.048 309.854 326.19 305.332 326.935 300.199C327.66 295.206 327.933 290.207 327.933 286.958Z" fill="#053564"/>
<path d="M234.149 271.529C236.788 271.092 239.287 272.807 239.851 275.392L239.9 275.644L240.015 276.276C240.687 279.696 242.766 286.987 244.986 294.211L245.161 294.755C246.02 297.322 247.355 299.804 249.14 301.897C249.594 302.188 250.358 302.487 252.115 302.686C253.825 302.879 256.018 302.932 258.558 302.946L261.208 302.951L261.465 302.958C264.107 303.092 266.208 305.276 266.208 307.951C266.208 310.627 264.107 312.811 261.465 312.944L261.208 312.951L258.568 312.947C255.902 312.934 253.215 312.874 250.989 312.622C248.076 312.292 245.437 311.598 243.063 309.851L242.591 309.486L242.281 309.235L242.014 308.939C239.055 305.642 236.968 301.788 235.675 297.921L235.427 297.148C233.268 290.12 230.984 282.22 230.176 278.061L230.035 277.28L229.998 277.026C229.698 274.397 231.51 271.967 234.149 271.529Z" fill="#053564"/>
<path d="M117.524 227.994C127.683 227.8 138.332 228.94 145.886 233.917L146.255 234.165L147.726 235.173L148.228 236.884C149.012 239.56 149.165 242.527 149.19 245.105C149.203 246.429 149.181 247.779 149.163 249.029C149.146 250.308 149.133 251.496 149.157 252.624C149.205 254.979 149.412 256.567 149.777 257.574C150.064 258.367 150.241 258.311 150.253 258.313L150.206 258.301C150.191 258.297 150.38 258.337 150.93 258.258C151.635 258.155 152.559 257.916 153.918 257.503C156.483 256.724 160.239 255.424 164.735 254.623L172.367 253.242C174.967 252.773 177.572 252.313 180.034 251.91C184.884 251.117 189.626 250.469 192.982 250.469C195.743 250.47 197.982 252.708 197.982 255.469C197.982 258.231 195.743 260.469 192.982 260.469C190.547 260.469 186.559 260.976 181.649 261.779C179.232 262.174 176.699 262.623 174.143 263.084L166.49 264.468C162.748 265.135 159.789 266.171 156.825 267.071C155.421 267.498 153.877 267.935 152.367 268.154C150.935 268.362 149.231 268.424 147.472 267.919L147.119 267.809C143.436 266.594 141.4 263.813 140.373 260.975C139.422 258.345 139.211 255.374 139.158 252.83C139.131 251.508 139.147 250.161 139.164 248.891C139.182 247.593 139.202 246.381 139.191 245.203C139.176 243.724 139.108 242.477 138.975 241.439C133.886 238.761 126.169 237.766 116.918 238.01C113.384 238.263 112.087 238.721 110.591 239.219C107.971 240.093 105.14 238.677 104.267 236.057C103.394 233.438 104.809 230.606 107.429 229.733C109.489 229.047 111.646 228.354 116.316 228.028L116.421 228.02L116.526 228.017L117.524 227.994Z" fill="#053564"/>
<path d="M220.281 68.3257C225.757 63.0111 233.444 62.5735 240.461 62.9859C244.153 63.2029 248.156 63.7014 252.144 64.1724C255.691 64.5912 259.306 64.9987 263.006 65.2359L264.597 65.3267L264.723 65.3345L265.536 65.4009C269.409 65.7404 270.63 66.2075 279.06 66.4868C285.712 66.7073 296.407 66.7629 308.385 66.7769L320.688 66.7818L320.945 66.7886C323.587 66.9225 325.688 69.1066 325.688 71.7818C325.688 74.4569 323.587 76.6411 320.945 76.7749L320.688 76.7818L308.402 76.7769C296.394 76.763 285.539 76.7076 278.729 76.482C269.793 76.1858 267.11 75.5443 263.995 75.3081C259.406 75.0757 255.003 74.58 250.972 74.104C246.844 73.6167 243.199 73.1637 239.874 72.9683C233.093 72.5697 229.42 73.4043 227.254 75.4956C227.187 75.7375 227.069 76.2643 226.949 77.2847C226.623 80.0521 226.405 85.1244 226.26 94.9732C225.985 113.623 226.532 148.779 225.749 168.341L225.669 170.184C224.938 185.72 224.252 198.596 224.412 208.237C224.492 213.058 224.783 216.829 225.317 219.587C225.583 220.958 225.885 221.946 226.179 222.627C226.244 222.78 226.306 222.908 226.361 223.014C226.611 223.067 226.921 223.126 227.298 223.189C228.796 223.439 230.928 223.685 233.618 223.918C238.973 224.384 246.171 224.77 254.138 225.077C268.064 225.613 284.15 225.901 296.431 225.964L301.444 225.977L301.702 225.984C304.344 226.118 306.444 228.302 306.444 230.977C306.444 233.652 304.344 235.837 301.702 235.971L301.444 235.977L296.39 235.963C284.007 235.9 267.806 235.611 253.753 235.07C245.731 234.761 238.346 234.368 232.752 233.881C229.967 233.639 227.533 233.366 225.652 233.052C224.721 232.897 223.815 232.714 223.025 232.488C222.534 232.347 221.279 231.985 220.198 231.11L219.984 230.928C217.339 228.553 216.157 224.882 215.5 221.49C214.8 217.877 214.496 213.426 214.413 208.403C214.246 198.355 214.959 185.047 215.681 169.714L215.76 167.885C216.537 148.488 215.977 114.156 216.262 94.8267C216.405 85.0741 216.62 79.4793 217.017 76.1128C217.216 74.4275 217.495 72.9701 217.985 71.7095C218.556 70.2421 219.313 69.3005 220.022 68.5826L220.281 68.3257Z" fill="#053564"/>
<path d="M344.688 104.01C348.224 103.811 351.194 103.831 353.553 104.056C354.895 104.183 356.169 104.388 357.294 104.713C358.221 104.981 359.588 105.476 360.735 106.518L360.961 106.733L361.138 106.92C362.912 108.883 362.852 111.912 360.961 113.804C359.196 115.569 356.44 115.738 354.485 114.313C354.154 114.22 353.552 114.101 352.606 114.011C350.903 113.849 348.472 113.813 345.266 113.993L343.845 114.084C335.52 114.674 305.376 117.02 264.942 116.73L264.91 116.729H264.877C250.54 116.438 248.299 115.83 243.763 115.557C240.205 115.342 234.875 115.288 228.887 115.273L222.721 115.269L222.464 115.262C219.822 115.128 217.721 112.944 217.721 110.269C217.721 107.507 219.96 105.269 222.721 105.269L228.863 105.273C234.91 105.287 240.523 105.344 244.365 105.575C249.691 105.896 250.916 106.443 265.043 106.73C305.049 107.016 334.856 104.697 343.138 104.109L344.688 104.01Z" fill="#053564"/>
<path d="M257.406 68.039C264.06 67.5582 271.291 67.4846 278.237 68.4824C281.164 68.5347 283.871 68.6601 286.22 68.8437L289.536 69.0927C297.097 69.641 303.436 69.9779 308.427 70.5449C314.181 71.1984 319.199 72.2401 323.366 74.8466L325.935 76.4335C332.041 80.1707 338.842 84.1781 344.914 89.2529L345.362 89.6386C345.545 89.8021 345.751 89.9965 345.952 90.2079C346.235 90.5063 346.779 91.1124 347.193 91.9931C347.715 92.1773 348.179 92.3517 348.561 92.5156C348.877 92.651 349.455 92.9083 350.006 93.289C350.229 93.4423 350.898 93.9134 351.453 94.7441C351.647 95.0358 351.856 95.4358 352.022 95.912C352.301 96.0719 352.61 96.2796 352.909 96.5497C353.413 97.0062 354.633 98.3251 354.554 100.452C354.476 102.565 353.174 103.784 352.656 104.195C351.721 104.935 350.741 105.14 350.711 105.147C350.439 105.215 350.208 105.25 350.085 105.267C349.822 105.302 349.568 105.321 349.384 105.332C348.992 105.356 348.513 105.369 348.002 105.376C347.683 105.38 347.329 105.381 346.943 105.381C346.841 105.491 346.737 105.597 346.63 105.695C345.763 106.495 344.809 106.884 344.193 107.086C343.099 107.444 341.833 107.601 340.539 107.668L339.983 107.691C324.099 108.215 310.239 109.447 297.157 109.695L294.55 109.731C277.467 109.876 262.951 109.8 252.248 109.54C246.901 109.41 242.466 109.234 239.119 109.013C237.449 108.902 236.003 108.777 234.829 108.635C233.903 108.523 232.869 108.37 231.981 108.119L231.61 108.006C230.773 107.727 228.697 107.108 226.957 105.168C225.292 103.312 224.412 100.835 223.908 97.8974C223.513 95.5985 223.22 92.2949 223.964 88.7167C223.225 86.8912 222.509 84.8161 222.042 82.8779C221.619 81.1251 221.149 78.5477 221.709 76.2411C222.02 74.9582 222.804 73.1577 224.702 71.9999C226.599 70.8425 228.604 70.9413 230.032 71.2851C229.843 71.2395 230.33 71.3286 232.234 71.1357C233.882 70.9687 235.993 70.6672 238.582 70.289C243.674 69.545 250.313 68.5515 257.406 68.039ZM235.096 87.9618C235.082 88.0682 235.069 88.1764 235.059 88.2861C235.097 88.3061 235.139 88.3262 235.184 88.3466C235.15 88.2227 235.122 88.0944 235.096 87.9618Z" fill="#053564"/>
<path d="M148.074 74.8732C149.33 74.5446 150.465 74.7556 151.281 75.0939C152.626 75.6509 153.327 76.6285 153.465 76.8156C153.594 76.9908 153.703 77.1593 153.79 77.3078L153.993 77.6789L154.115 77.9299C154.397 78.5404 154.671 79.309 154.869 79.8762C155.139 80.6467 155.446 81.5654 155.74 82.4465C156.613 85.0661 155.196 87.8975 152.576 88.7707C149.957 89.6437 147.125 88.2282 146.252 85.6086C146.075 85.0757 145.903 84.5654 145.744 84.0959C144.82 83.1886 144.246 81.9258 144.246 80.5285C144.246 80.4077 144.246 80.1686 144.254 79.9357C144.259 79.8032 144.274 79.2293 144.43 78.6017C144.482 78.3936 144.719 77.3937 145.543 76.4455C146.027 75.8885 146.854 75.1927 148.074 74.8732Z" fill="#053564"/>
<path d="M105.456 82.832C108.56 82.603 112.433 82.8309 115.559 83.126L116.182 83.1973C122.533 84.0514 126.224 88.53 128.461 92.5068C129.624 94.5751 130.54 96.7574 131.296 98.626C131.679 99.5695 132.01 100.403 132.318 101.15C132.769 100.872 133.316 100.521 133.976 100.081C135.667 98.9548 137.947 97.3769 140.332 96.1582C142.716 94.9398 145.745 93.7847 149.083 93.8916L149.705 93.9238C152.778 94.1526 155.353 95.3353 157.322 97.2647C159.306 99.2093 160.372 101.613 160.988 103.685C161.609 105.773 161.875 107.876 162.031 109.515C162.218 111.48 162.229 112.26 162.338 112.913L162.419 113.454C163.123 118.989 160.156 122.967 158.107 125.301C157.565 125.918 157.017 126.497 156.578 126.964C156.249 127.313 155.987 127.596 155.767 127.844C156.355 128.267 157.394 128.76 159.138 129.337C160.035 129.633 160.993 129.915 162.056 130.227C163.09 130.529 164.226 130.86 165.344 131.225C167.523 131.935 170.067 132.902 172.24 134.443L172.592 134.71C174.289 136.076 175.001 137.917 175.304 139.296C175.63 140.779 175.614 142.281 175.51 143.52C175.327 145.702 174.788 147.919 174.351 149.481L174.171 150.108C171.701 158.544 163.262 160.659 158.245 161.522C156.846 161.763 155.482 161.941 154.289 162.093C153.063 162.249 152.076 162.371 151.226 162.513C151.432 163.25 151.968 164.314 153.169 165.896C154.233 167.301 155.506 168.713 156.974 170.374C158.367 171.95 159.938 173.752 161.233 175.64L161.399 175.893C163.043 178.508 162.468 181.219 161.868 182.763C161.325 184.156 160.494 185.364 159.856 186.198L159.595 186.532C153.682 194.002 145.082 194.605 141.913 195.007L141.354 195.086C137.631 195.711 134.631 194.047 132.7 192.694C131.698 191.993 130.743 191.199 129.933 190.521C129.2 189.908 128.567 189.376 127.937 188.886C127.864 188.91 127.782 188.948 127.702 189.008C127.611 189.076 127.502 189.185 127.399 189.368C127.039 190.01 126.669 191.467 126.325 193.993C126.05 196.006 125.762 199.074 125.249 201.187C124.654 203.629 123.544 205.928 121.362 207.501C119.606 208.767 117.664 209.158 116.286 209.34L115.731 209.407C109.267 210.14 102.905 209.273 98.7017 206.94L98.3013 206.711C93.6435 203.927 91.3773 199.154 89.8267 195.504C88.3762 192.089 87.4396 189.447 86.1373 187.271C86.0127 187.445 85.7575 187.854 85.3863 188.75C85.2446 189.092 85.107 189.446 84.9449 189.863C84.7907 190.26 84.6117 190.72 84.4195 191.178C84.0957 191.948 83.645 192.934 82.9996 193.891L82.7105 194.298C80.1771 197.697 76.2549 196.669 75.1939 196.314C73.8392 195.862 72.5912 195.109 71.6285 194.396L71.233 194.093C64.0714 188.423 61.4577 181.111 60.3658 177.346L60.1666 176.642C58.3926 170.213 62.2588 165.664 64.7515 163.222C65.4153 162.571 66.0857 161.97 66.6539 161.463C67.1331 161.035 67.5196 160.685 67.8589 160.367C65.5418 159.127 63.2732 158.565 61.0289 158.17C60.0534 157.998 58.1385 157.715 57.0972 157.517C55.9127 157.29 54.4127 156.944 52.9888 156.227L52.7046 156.078C49.1747 154.159 47.727 150.39 47.0728 148.139C46.2465 145.295 46.0833 141.629 47.6558 138.42L47.8072 138.12C51.044 131.884 57.5356 130.517 61.7076 130.101C63.4089 129.931 65.1749 129.884 66.5005 129.847C66.2858 129.52 66.0284 129.15 65.7232 128.734C64.5259 127.103 63.225 125.583 61.6529 123.585C60.3204 121.892 58.835 119.901 57.7769 117.842L57.5709 117.429C56.5603 115.336 56.5092 113.172 56.7447 111.497C56.9826 109.805 57.5676 108.19 58.3277 106.893L58.4576 106.68C59.8227 104.52 62.0169 103.535 63.5845 103.043C64.3965 102.788 65.2595 102.599 66.1451 102.458C69.4397 99.7474 71.4185 98.3961 73.5709 97.3252C75.2053 96.512 78.6839 94.8888 82.3072 96.1963L82.6578 96.332L83.4439 96.6572L84.0787 97.2236C84.6114 97.6993 85.8273 98.6638 87.5601 100.065C88.1853 100.571 88.8549 101.12 89.5396 101.686C90.455 100.663 91.7851 100.021 93.2652 100.021C94.5771 100.021 95.7707 100.526 96.6626 101.353C98.022 100.123 98.3718 98.7447 98.3111 97.127C98.2519 95.5504 97.8337 94.1467 97.3853 92.7422L96.939 91.3301C96.4484 89.7122 96.6065 87.8719 97.6568 86.2861C98.5511 84.9358 99.7868 84.2379 100.582 83.8818C102.155 83.1771 104.007 82.9389 105.456 82.832ZM107.757 92.7432C108.029 93.9673 108.251 95.3429 108.304 96.751C108.454 100.736 107.327 105.489 102.88 109.2L102.44 109.556C100.974 110.7 99.339 111.228 97.982 111.462C97.9985 111.554 98.0165 111.647 98.0289 111.742C98.1939 113.015 97.9637 114.893 96.4292 116.376C95.1301 117.631 93.6081 117.879 92.8746 117.941C92.255 117.994 91.6648 117.958 91.1548 117.894L90.6734 117.822C88.6874 117.486 87.2447 116.196 86.7916 115.807C86.4515 115.514 86.0859 115.178 85.813 114.93C85.5109 114.655 85.2391 114.412 84.9605 114.18C83.9505 113.338 83.0355 112.801 81.8912 112.642L81.6597 112.614C77.0314 112.184 72.8935 111.948 69.7945 112.123C68.3484 112.205 67.3474 112.367 66.7212 112.543C66.6888 112.662 66.6626 112.779 66.647 112.89C66.6276 113.028 66.6277 113.127 66.6304 113.186C67.1927 114.311 68.1653 115.69 69.5113 117.4C70.7493 118.973 72.4803 121.039 73.7857 122.817C75.0678 124.564 76.5982 126.874 77.1998 129.355C77.5242 130.692 77.6425 132.326 77.107 134.032C76.5896 135.681 75.5856 137.005 74.3335 138.005L74.0796 138.2C72.7734 139.174 71.3046 139.459 70.5591 139.578C69.6681 139.721 68.7136 139.775 67.8931 139.808C66.0619 139.88 64.4834 139.874 62.7017 140.052C59.2547 140.396 57.5682 141.244 56.7808 142.554L56.6353 142.821C56.476 143.146 56.3131 144.099 56.6763 145.349C56.9001 146.119 57.1438 146.688 57.3687 147.06C57.4538 147.2 57.5186 147.283 57.5552 147.325C57.7189 147.395 58.1147 147.531 58.9722 147.694C60.2253 147.934 60.9123 147.996 62.7642 148.322C65.8723 148.87 69.8542 149.817 74.0328 152.385L74.3209 152.569C77.158 154.463 78.8771 157.907 78.4195 161.496L78.3668 161.855C78.12 163.325 77.4494 164.48 76.8843 165.267C76.3095 166.067 75.6417 166.762 75.0689 167.316C74.4917 167.875 73.8527 168.441 73.313 168.923C72.7405 169.434 72.2286 169.896 71.7496 170.365C69.6701 172.402 69.6041 173.249 69.8062 173.981L69.9683 174.556C70.7537 177.255 72.317 181.507 76.0845 185.077C76.1053 185.026 76.1259 184.975 76.147 184.924C76.8379 183.255 78.1626 180.292 81.1431 178.546L81.399 178.401C82.7057 177.686 84.4099 177.112 86.1646 176.977C87.8513 176.847 90.8857 177.07 92.9908 179.613L93.1919 179.866L93.4527 180.219C96.1159 183.89 97.7422 188.561 99.0308 191.595C100.578 195.238 101.816 197.162 103.431 198.127L103.766 198.31C105.582 199.22 109.505 200.049 114.605 199.471L114.982 199.424C115.142 199.402 115.27 199.379 115.374 199.359C115.419 199.232 115.475 199.057 115.532 198.822C115.884 197.374 116.028 195.488 116.417 192.642C116.735 190.309 117.257 187.003 118.681 184.469C121.687 179.121 128.659 177.13 133.401 180.48L133.625 180.643L134.362 181.214C135.087 181.789 135.768 182.366 136.351 182.854C137.181 183.548 137.832 184.081 138.436 184.504C139.252 185.076 139.637 185.194 139.747 185.216C144.14 184.484 148.429 184.527 151.755 180.325L152.014 179.984C151.285 179.057 150.437 178.076 149.482 176.996C148.141 175.479 146.551 173.719 145.201 171.938C142.669 168.6 139.502 163.309 142.019 157.295L142.113 157.082C143.111 154.922 145.027 153.97 146.031 153.565C147.195 153.096 148.476 152.834 149.54 152.655C150.643 152.47 151.883 152.318 153.027 152.173C154.218 152.021 155.387 151.868 156.547 151.668C161.766 150.769 163.968 149.368 164.575 147.298L164.729 146.757C165.089 145.462 165.438 143.959 165.545 142.683C165.566 142.441 165.572 142.237 165.574 142.067C164.735 141.624 163.642 141.188 162.246 140.732C161.299 140.424 160.315 140.136 159.248 139.824C158.21 139.521 157.086 139.191 155.998 138.831C153.919 138.144 151.4 137.171 149.367 135.539C147.098 133.718 145.4 131.029 145.41 127.434L145.416 127.178C145.521 124.547 147.111 122.59 147.839 121.721C148.319 121.149 148.848 120.585 149.294 120.111C149.77 119.605 150.187 119.163 150.592 118.702C152.161 116.916 152.612 115.845 152.505 114.782L152.476 114.569C152.293 113.478 152.181 111.563 152.076 110.46C151.94 109.03 151.746 107.69 151.403 106.536C151.055 105.366 150.65 104.728 150.323 104.407C150.138 104.226 149.836 103.987 149.104 103.909L148.762 103.886C147.871 103.857 146.623 104.174 144.882 105.063C143.142 105.953 141.449 107.119 139.521 108.403C137.895 109.487 135.579 111.038 133.323 111.681C132.085 112.033 130.303 112.29 128.413 111.594C126.529 110.9 125.276 109.539 124.496 108.105L124.346 107.817C123.506 106.13 122.719 104.086 122.028 102.38C121.286 100.549 120.57 98.8779 119.744 97.4082C118.178 94.6236 116.716 93.4152 114.972 93.127L114.62 93.0811C112.273 92.8595 109.798 92.7156 107.757 92.7432ZM155.398 127.489C155.392 127.5 155.391 127.511 155.407 127.535C155.407 127.511 155.41 127.486 155.41 127.461L155.398 127.489Z" fill="#053564"/>
<path d="M110.663 96.7781C111.715 96.2665 113.558 95.8152 115.491 96.8025C117.153 97.6523 117.857 99.0755 118.126 99.7361C118.431 100.486 118.566 101.221 118.638 101.769L118.699 102.278C118.869 103.81 118.911 105.462 118.79 107.126C121.056 107.602 122.757 109.611 122.757 112.018C122.757 114.78 120.518 117.018 117.757 117.018C116.935 117.018 116.145 117.018 115.385 117.024C114.923 117.606 114.401 118.156 113.809 118.656L113.548 118.869C112.936 119.354 112.314 119.751 111.728 120.084C112.617 120.158 113.516 120.225 114.427 120.287C116.755 120.445 119.253 120.593 121.588 120.877C126.121 121.426 131.46 122.608 135.201 126.775L135.438 127.049C136.6 128.445 137.453 130.248 138.086 132.026C138.797 134.022 139.371 136.396 139.758 139.035C140.484 143.987 140.58 150.102 139.509 156.808L139.279 158.158C138.783 160.891 137.89 163.899 135.48 166.071C133.182 168.141 130.331 168.719 127.75 168.888L127.239 168.917C121.175 169.203 115.429 169.462 110.829 169.32C108.528 169.249 106.331 169.075 104.424 168.701C102.765 168.375 100.727 167.793 99.0628 166.51L98.7356 166.244C96.1276 164.012 92.3789 161.119 89.4895 158.015C86.6004 154.912 83.8495 150.891 83.3577 145.762L83.3167 145.263C82.9852 140.251 83.6634 135.507 85.0315 131.403L85.5091 130.014C86.6494 126.783 87.9644 123.646 89.1175 120.958C89.697 119.607 90.21 118.416 90.6507 117.381L86.5305 115.493L93.1175 112.095C93.9139 111.248 94.986 110.701 96.1389 110.554C97.5145 109.929 99.376 109.383 101.149 108.93C101.659 108.8 102.192 108.67 102.741 108.542C102.781 108.475 102.822 108.407 102.863 108.338C103.779 106.747 104.67 104.97 105.638 103.136C106.097 102.267 106.576 101.38 107.043 100.599C107.469 99.8876 108.054 98.9697 108.753 98.2205C109.084 97.8656 109.725 97.2345 110.663 96.7781ZM96.5491 129.109C95.989 130.499 95.4425 131.914 94.9427 133.33L94.5188 134.566C93.5603 137.442 93.0494 140.886 93.2952 144.603L93.3323 144.99C93.5735 146.927 94.6706 148.905 96.8089 151.202C99.1552 153.723 101.962 155.851 105.125 158.552C105.198 158.581 105.543 158.729 106.35 158.887C107.49 159.111 109.074 159.262 111.137 159.325C115.268 159.452 120.593 159.22 126.767 158.928L127.13 158.907C128.188 158.834 128.636 158.689 128.783 158.627C128.875 158.476 129.159 157.917 129.439 156.375L129.634 155.227C130.543 149.53 130.443 144.437 129.864 140.485C129.554 138.375 129.118 136.654 128.664 135.38C128.438 134.744 128.222 134.259 128.038 133.913C127.942 133.732 127.867 133.611 127.819 133.539L127.761 133.456C126.611 132.176 124.528 131.306 120.384 130.803C118.382 130.561 116.227 130.433 113.749 130.264C111.639 130.121 109.347 129.951 107.007 129.647L106.002 129.509C104.354 129.267 102.063 129.191 99.6282 129.154C98.6532 129.139 97.5775 129.13 96.5491 129.109Z" fill="#053564"/>
<path d="M113.125 89.2671C116.678 89.1951 118.901 91.4415 119.644 92.3042L119.875 92.5845L120.14 92.9253C121.415 94.6318 121.997 96.4019 122.319 97.5464C122.491 98.157 122.64 98.7879 122.737 99.1889C122.85 99.6523 122.926 99.9471 123.002 100.195L123.207 100.908C123.749 102.926 123.936 104.894 123.988 107.28C125.016 107.139 126.049 107.011 126.998 106.922L127.325 106.897C130.645 106.695 133.161 108.162 134.472 109.05C134.708 108.857 134.961 108.662 135.23 108.471L135.951 107.963C137.711 106.738 140.011 105.275 142.928 104.517L143.464 104.389C143.985 104.275 144.457 104.201 144.853 104.15C145.06 104.123 145.271 104.1 145.461 104.081C145.846 103.889 146.291 103.708 146.789 103.576C147.912 103.277 149.41 103.182 151 103.758C152.541 104.316 153.553 105.281 154.145 106.036C155.146 107.309 155.433 108.602 155.488 108.834C155.665 109.575 155.709 110.296 155.724 110.51L155.771 111.364C155.854 113.35 155.742 115.294 155.418 117.008C155.236 117.972 154.944 119.09 154.448 120.176C154.08 120.981 153.158 122.774 151.182 123.999L150.772 124.237C149.878 124.719 149.013 125.078 148.226 125.356C149.142 127.207 149.686 129.031 150.141 130.466L150.301 131C150.783 132.687 150.983 134.249 151.061 135.568C151.107 135.581 151.155 135.592 151.203 135.605L151.765 135.753C152.33 135.894 152.925 136.019 153.666 136.172C154.605 136.366 155.795 136.61 157.097 136.969L157.912 137.204C159.813 137.774 161.697 138.5 163.268 139.327L163.693 139.566C164.205 139.873 164.939 140.39 165.616 141.187C166.664 142.421 167.934 144.863 167.05 147.871C166.333 150.308 164.607 151.534 164.018 151.919C163.27 152.408 162.569 152.677 162.182 152.813C160.805 153.294 159.114 153.505 158.131 153.619C156.916 153.759 155.566 153.87 154.466 153.961C153.554 154.037 152.876 154.095 152.407 154.145L152.007 154.193C150.416 154.41 148.313 154.738 146.282 155.051C146.196 155.415 146.081 155.854 145.924 156.326C145.417 157.846 144.96 159.221 144.507 160.839L144.312 161.549C143.695 163.861 143.369 164.837 143.201 165.967L143.138 166.465C143.105 166.774 143.08 167.015 143.057 167.235C143.455 167.376 143.908 167.551 144.363 167.76L144.628 167.886C146.592 168.857 147.885 170.283 148.727 171.506C149.3 171.663 150.011 171.863 150.546 172.061C150.712 172.123 151.214 172.31 151.769 172.626C151.998 172.758 152.691 173.161 153.389 173.885C153.884 174.4 156.055 176.837 155.148 180.464C154.313 183.807 151.584 185.009 151.117 185.211C150.298 185.567 149.596 185.683 149.338 185.723C148.739 185.816 148.224 185.819 148.015 185.819C147.957 185.819 147.91 185.818 147.892 185.818C147.868 185.817 147.849 185.817 147.837 185.817C147.816 185.816 147.79 185.815 147.78 185.815C147.752 185.814 147.729 185.814 147.703 185.814C147.651 185.813 147.592 185.812 147.533 185.813C147.499 185.813 147.473 185.814 147.453 185.815C147.038 185.883 146.613 185.942 146.177 185.989C145.69 186.153 145.219 186.271 144.782 186.347L144.388 186.407C141.767 186.75 139.189 186.549 137.033 186.132C135.081 185.755 133.032 185.116 131.335 184.195L131.001 184.007C129.94 183.39 128.954 182.743 128.114 182.105C127.835 182.325 127.58 182.497 127.394 182.615L127.187 182.741C126.316 183.26 124.614 184.085 122.487 184.369C122.423 184.39 122.32 184.427 122.175 184.484C121.95 184.571 121.703 184.675 121.379 184.811C121.249 184.866 121.096 184.926 120.936 184.994C120.899 185.378 120.854 185.85 120.792 186.341L120.705 186.96C120.25 189.895 119.428 192.161 118.466 194.146L118.045 194.981C117.91 195.24 117.762 195.482 117.611 195.712C118.825 198.729 117.8 202.284 114.983 204.152C111.863 206.222 107.688 205.462 105.487 202.484L105.281 202.188L104.932 201.642C104.368 200.725 104.045 200.002 103.812 199.382C101.817 198.627 100.266 197.476 99.2012 196.584L98.8095 196.25C96.077 193.884 94.6898 190.6 94.0537 189.023L93.8252 188.459C92.9879 186.458 92.7264 184.384 92.5859 183.276C92.4969 182.573 92.4551 182.196 92.3926 181.792C92.3478 181.504 92.3208 181.404 92.3262 181.421C91.5525 179.059 91.4817 175.883 92.4023 172.745L92.5215 172.367C93.8149 168.536 97.0426 166.912 99.4404 166.405C101.559 165.956 103.682 166.176 104.971 166.344C106.191 166.504 108.034 166.84 108.734 166.95C109.301 167.038 109.63 167.07 109.786 167.084C109.848 167.071 109.914 167.054 109.985 167.041C110.465 166.948 112.302 166.601 114.358 167.433C114.863 167.088 115.504 166.704 116.259 166.374C117.854 165.676 119.567 165.371 121.4 165.39L122.77 165.415C125.395 165.48 127.413 165.648 129.119 165.91C129.156 165.557 129.189 165.248 129.214 165.011L129.275 164.487C129.61 161.881 130.361 159.53 130.786 157.937L131.026 157.062C131.585 155.068 132.137 153.416 132.643 151.899C132.633 151.928 132.663 151.838 132.764 151.333C132.837 150.965 132.985 150.169 133.186 149.41C133.574 147.943 134.563 144.894 137.653 142.894L137.719 142.853C137.298 141.859 137.176 140.992 137.128 140.579C137.059 139.984 137.056 139.447 137.059 139.12C137.061 138.775 137.074 138.41 137.083 138.154C137.093 137.864 137.101 137.617 137.104 137.361C137.117 136.49 137.069 135.729 136.882 135.002L136.794 134.693C136.337 133.25 136.07 132.441 135.798 131.813C135.625 131.414 135.507 131.229 135.438 131.139L135.387 131.077C135.425 131.119 135.354 131.016 134.536 130.494C133.988 130.143 132.836 129.448 131.69 128.522L131.201 128.111C130.781 127.744 129.744 126.952 128.653 126.169C127.311 125.618 126.154 124.92 125.275 124.138L124.961 123.843C124.788 123.671 124.496 123.374 124.203 123.009C124.066 122.838 123.79 122.483 123.516 121.999C123.486 121.948 123.393 121.785 123.273 121.532C122.942 121.581 122.607 121.631 122.269 121.681C121.215 121.837 120.119 121.994 119.148 122.104C118.42 122.186 117.372 122.291 116.355 122.265L115.922 122.246C115.617 122.225 115.067 122.17 114.408 121.976C113.781 121.791 112.641 121.362 111.559 120.332C110.328 119.161 109.563 117.58 109.411 115.882C109.278 114.388 109.654 113.223 109.901 112.616C109.925 112.558 109.951 112.502 109.976 112.447C110.033 106.223 109.978 105.477 109.624 104.324C108.378 104.213 107.145 103.769 106.067 102.967C102.966 100.659 102.324 96.2735 104.632 93.1723L104.804 92.9497C105.669 91.8698 106.649 91.2278 107.235 90.8891C107.936 90.4841 108.624 90.2017 109.196 90.0044C110.319 89.617 111.557 89.3642 112.725 89.2846L113.125 89.2671ZM143.44 105.57C143.428 105.583 143.419 105.592 143.419 105.592C143.381 105.632 143.411 105.6 143.477 105.534C143.462 105.548 143.449 105.561 143.44 105.57Z" fill="#053564"/>
<path d="M147.018 180.82C149.203 177.754 153.442 176.958 156.597 179.061C159.713 181.139 160.626 185.282 158.731 188.463L158.538 188.768L157.667 190.075C157.536 190.272 156.645 191.726 155.247 192.833L154.529 193.402L153.688 193.767C153.662 193.782 153.468 193.898 152.665 194.488C151.977 194.993 150.876 195.81 149.465 196.565L148.842 196.884C147.123 197.723 145.47 197.788 144.245 197.633C143.227 197.504 142.346 197.186 142.261 197.158C142.185 197.132 141.946 197.053 141.709 196.964C141.621 196.931 140.884 196.67 140.122 196.173C139.901 196.029 138.535 195.174 137.65 193.423C137.111 192.359 136.676 190.802 137.006 188.988C137.331 187.207 138.253 185.956 139.019 185.21C139.648 184.597 140.307 184.189 140.849 183.921C140.908 183.833 140.969 183.744 141.035 183.655C141.961 182.404 143.815 180.859 146.555 180.812C146.713 180.809 146.867 180.813 147.018 180.82Z" fill="#053564"/>
<path d="M67.8037 98.023C67.251 98.3908 73.0371 92.4382 80.7168 94.5191L81.084 94.6246L81.752 94.8424C85.0694 95.9971 88.0324 98.158 90.2373 100.449L90.9727 101.221C92.74 103.1 94.8076 105.454 95.8233 107.086C97.8663 110.367 96.8618 114.684 93.5801 116.727C90.2984 118.77 85.9819 117.767 83.9385 114.485C83.9516 114.506 83.8648 114.371 83.6084 114.044C83.3733 113.743 83.0658 113.37 82.6953 112.94C82.1394 112.295 81.4917 111.578 80.8233 110.866L80.1504 110.158C79.2257 109.197 78.237 108.542 77.501 108.209C77.465 108.236 77.4253 108.266 77.3838 108.298C77.2864 108.375 77.1893 108.454 77.0674 108.551C76.9533 108.643 76.8144 108.754 76.6719 108.866C76.3941 109.084 76.01 109.378 75.5703 109.671C74.8806 110.131 74.3763 110.515 74.0274 110.81C73.6647 111.117 73.5451 111.263 73.5674 111.236L73.3516 111.5L73.1114 111.742C72.882 111.972 72.6503 112.182 72.5899 112.238C72.4996 112.321 72.4765 112.342 72.458 112.361C72.4462 112.373 72.3306 112.486 72.0703 112.832L71.8467 113.114C69.4709 115.955 65.2584 116.463 62.2676 114.209C59.1804 111.882 58.5637 107.492 60.8907 104.405L61.3369 103.832C61.7707 103.292 62.1686 102.852 62.5537 102.466C62.773 102.247 62.9632 102.07 63.086 101.958C64.3288 100.556 65.9807 99.2384 67.8037 98.023Z" fill="#053564"/>
<path d="M117.547 100.819C117.547 99.2168 117.542 98.1223 117.495 97.5286C117.482 97.3624 117.467 97.2585 117.435 97.0765C117.408 96.9266 117.295 96.3381 117.227 95.7151L117.215 95.6077L117.206 95.5003C117.191 95.3099 117.177 95.1311 117.163 94.9622C112.964 94.9639 109.993 94.9699 107.851 95.015C107.964 95.2967 108.106 95.657 108.225 96.015L94.9366 100.422C94.9525 100.47 94.9349 100.414 94.797 100.078C94.6915 99.8216 94.5074 99.3793 94.3312 98.9368C94.0107 98.1323 93.6095 97.0637 93.2716 95.8411L93.131 95.3079C92.1659 91.4593 93.2685 88.1303 94.2716 86.2855L94.4718 85.9359C95.5041 84.2165 97.0304 82.9288 98.9659 82.1556C100.582 81.5102 102.317 81.2985 103.754 81.1849C106.703 80.9518 111.449 80.9634 118.779 80.9612L119.43 80.9661C120.94 80.9908 122.396 81.114 123.708 81.4857C124.548 81.7237 125.481 82.1035 126.389 82.7376C127.094 83.2305 127.593 83.7475 127.885 84.0833L128.109 84.3519L128.384 84.7064C129.71 86.4859 130.308 88.3687 130.627 89.9183C130.929 91.3872 131.052 92.9777 131.15 94.2347C131.151 94.2428 131.152 94.2525 131.154 94.264C131.174 94.3803 131.179 94.4005 131.223 94.6507C131.299 95.0813 131.392 95.6604 131.452 96.43C131.553 97.7084 131.547 99.4744 131.547 100.819C131.547 104.684 128.413 107.819 124.547 107.819C120.681 107.818 117.547 104.684 117.547 100.819ZM108.225 96.015C109.442 99.6843 107.454 103.646 103.784 104.863C100.115 106.08 96.1538 104.091 94.9366 100.422L108.225 96.015Z" fill="#053564"/>
<path d="M72.5694 110.31C74.3749 108.933 77.228 107.643 80.6211 108.293L80.9942 108.372L81.7432 108.546C82.5908 108.753 83.8336 109.106 85.0772 109.727L85.416 109.903L85.8301 110.117C86.2429 110.319 86.6465 110.49 87 110.62C87.2326 110.706 87.4177 110.765 87.543 110.801C87.6209 110.823 87.6558 110.831 87.6514 110.83L87.9131 110.88C91.5312 111.67 93.9321 115.169 93.3194 118.864C92.9327 121.195 91.4342 123.063 89.4571 124.02C89.4619 124.128 89.4649 124.23 89.4668 124.325C89.4845 125.201 89.4126 126.152 89.2246 127.073C89.1347 127.513 89.0001 128.038 88.7891 128.604C89.1454 129.56 89.4034 130.424 89.5918 131.175L89.6739 131.534C90.4475 135.215 88.7518 138.108 87.9922 139.284C87.5394 139.984 87.042 140.628 86.75 141.009C86.5693 141.245 86.4427 141.412 86.3496 141.537L86.1494 141.821C86.1416 141.833 86.132 141.844 86.1241 141.856C86.613 141.946 87.1614 142.095 87.7364 142.345L88.001 142.466L88.2442 142.588C92.9405 145.02 92.4445 149.924 91.9424 151.824L91.8418 152.166C91.5422 153.084 91.1838 153.909 90.7979 154.655C91.7434 154.739 92.6408 154.915 93.4707 155.164L93.834 155.28L94.1328 155.383C95.6828 155.935 98.69 157.313 100.281 160.92L100.44 161.302L100.626 161.784C101.547 164.24 102.329 167.321 102.579 170.07C102.704 171.443 102.766 173.403 102.238 175.318C101.966 176.305 101.41 177.756 100.187 179.069C98.8986 180.451 97.1396 181.378 95.1465 181.589L94.7442 181.621C92.6872 181.737 90.7816 181.428 89.8067 181.286C89.2211 181.202 88.9143 181.162 88.6778 181.145C88.6413 181.142 88.6128 181.141 88.5918 181.14C87.4508 181.306 86.2053 181.408 85.4532 181.483C84.5174 181.575 83.8381 181.666 83.2334 181.808C83.2636 181.801 83.3478 181.757 82.7325 182.082C81.8834 184.992 79.1978 187.118 76.0137 187.118C72.3884 187.118 69.4059 184.363 69.0489 180.831C68.0992 179.486 67.6865 178.022 67.5469 176.781L67.5166 176.456C67.3944 174.894 67.3473 173.381 67.3985 172.046C67.438 171.017 67.5512 169.134 68.2578 167.445L68.4776 166.955C69.0078 165.852 69.6516 165.006 70.1407 164.427C70.6493 163.825 71.2677 163.205 71.4746 162.99C71.512 162.951 71.5443 162.913 71.5752 162.88C71.7916 161.975 71.943 161.16 72.1709 160.061C70.81 160.166 68.9313 160.293 67.002 160.353C65.0362 160.414 62.5808 160.426 60.5157 160.155L60.1084 160.096C57.7337 159.729 55.6315 158.911 54.085 158.189C52.5995 158.034 51.4391 157.458 50.6787 156.946C49.8135 156.362 49.2377 155.716 48.9121 155.307C48.5662 154.873 48.3234 154.478 48.1739 154.216C48.1611 154.194 48.1506 154.171 48.1387 154.15C47.9747 153.873 47.7623 153.481 47.5811 153.015C47.4378 152.646 47.1277 151.775 47.0957 150.62C47.0659 149.539 47.2924 147.77 48.5391 146.148C48.5422 146.113 48.5433 146.078 48.5469 146.042C48.9126 142.52 51.5417 140.952 52.1641 140.613C53.0244 140.144 53.7796 139.972 54.0332 139.916C54.6363 139.785 55.1297 139.762 55.2588 139.756C55.3218 139.753 55.3836 139.755 55.4434 139.753C55.9385 139.328 56.5038 138.927 57.1485 138.576L57.6729 138.303C58.8951 137.695 60.1064 137.279 61.2305 136.969L61.7627 136.81C62.278 136.644 62.7883 136.448 63.6914 136.133C64.7127 135.777 66.2265 135.279 68 135.094L68.9707 134.999C71.0073 134.812 71.5533 134.836 72.708 134.434L73.4561 134.177C73.6873 134.098 73.8867 134.029 74.0723 133.961C74.3809 133.849 74.5958 133.758 74.752 133.687C74.9808 133.36 75.2076 133.061 75.3946 132.815C75.014 131.96 74.4308 130.908 73.5235 129.718L73.1651 129.263C72.5473 128.5 71.9158 127.666 71.3907 126.981C70.8308 126.25 70.3409 125.621 69.8633 125.056C69.719 124.885 69.5823 124.73 69.4541 124.587C69.337 124.5 69.2203 124.416 69.1084 124.33L67.7842 123.291C67.6065 123.151 67.4959 123.07 67.2735 122.899C67.2646 122.892 66.9895 122.684 66.7364 122.459C66.6768 122.406 66.4406 122.197 66.1739 121.902C66.0637 121.78 65.7303 121.406 65.3975 120.863C65.2336 120.595 64.9227 120.051 64.6875 119.302C64.4772 118.632 64.0911 117.059 64.6709 115.16C65.3618 112.898 67.0151 111.448 68.628 110.762C69.9682 110.192 71.1348 110.19 71.626 110.208C71.9753 110.221 72.2944 110.262 72.5694 110.31ZM48.0586 154.005C48.0593 154.006 48.0623 154.011 48.0664 154.019C48.0462 153.981 48.0268 153.946 48.0098 153.913C48.0231 153.939 48.0395 153.97 48.0586 154.005Z" fill="#053564"/>
<path d="M86.6564 170.232C90.0512 168.753 94.0469 170.181 95.715 173.534C97.3099 176.74 96.2161 180.579 93.2961 182.497C93.2429 182.553 93.1776 182.624 93.1017 182.711C92.8011 183.055 92.442 183.517 92.0832 184.028C92.1159 184.386 92.1204 184.704 92.1125 184.965L92.0881 185.397C91.9983 186.474 91.6753 187.268 91.5763 187.507C91.4321 187.857 91.2869 188.128 91.1965 188.29C91.0125 188.617 90.8344 188.874 90.7218 189.031C90.4826 189.363 90.2321 189.661 89.9992 189.914C89.6106 190.335 89.0327 190.891 88.2765 191.408L87.9426 191.627C87.7533 191.744 87.441 191.965 86.8361 192.401C86.3388 192.76 85.6103 193.288 84.9084 193.737C84.6278 193.916 83.9198 194.377 82.9826 194.779C82.8672 194.841 82.7497 194.904 82.6301 194.964C82.4 195.08 82.1813 195.179 82.0929 195.22C81.9799 195.273 81.945 195.29 81.9152 195.305C81.8969 195.314 81.8162 195.352 81.6164 195.485C78.3948 197.622 74.0513 196.743 71.9142 193.521C69.9219 190.517 70.5518 186.539 73.257 184.283C73.5396 183.705 73.8646 183.174 74.2013 182.699C75.0581 181.489 76.1955 180.334 77.5676 179.321L77.967 179.014C78.8721 178.292 79.5901 177.518 80.1603 176.663C80.8716 175.596 81.7029 174.48 82.5519 173.506C83.1669 172.802 84.5335 171.278 86.3293 170.384L86.6564 170.232Z" fill="#053564"/>
<path d="M100.939 120.416C103.671 119.813 106.381 120.897 107.987 122.972C108.891 122.688 109.911 122.496 111.037 122.489L111.407 122.493L113.088 122.513C113.834 122.524 114.659 122.543 115.248 122.586C116.679 122.69 118.801 122.982 120.911 124.176L121.333 124.427L122.153 124.954C124.264 126.351 127.641 128.905 130.002 132.565L130.369 133.146C132.151 136.037 133.201 138.718 133.841 140.803L133.989 141.303C134.332 142.509 134.654 143.987 134.809 145.556C134.966 147.148 135.005 149.337 134.358 151.56L134.219 152.006C133.548 154.018 132.129 156.421 129.416 157.977L129.149 158.125C128.064 158.707 124.883 160.76 121.146 161.366L120.783 161.42C118.567 161.719 115.948 161.874 113.602 161.883C111.648 161.889 109.087 161.806 107.082 161.32L106.688 161.218C104.822 160.694 102.414 159.928 100.04 158.553L99.565 158.27C95.9398 156.039 93.4421 152.706 92.3374 149.392C92.1854 148.936 91.9775 148.516 91.4302 147.275C91.047 146.407 90.4957 145.119 90.1158 143.643L89.9644 143C89.7298 141.895 89.6489 141.869 89.2007 140.002C88.8876 138.697 88.5175 136.856 88.5894 134.799L88.6099 134.311C88.6688 133.103 88.8246 131.416 89.3589 129.726C89.9932 127.721 91.4058 124.98 94.5191 123.354L95.1197 123.032C95.6105 122.76 95.8794 122.586 96.9195 122.025C97.7322 121.587 99.246 120.789 100.939 120.416Z" fill="#053564"/>
<circle cx="110.5" cy="141.5" r="16.5" fill="#FFE987"/>
</svg>
