<svg width="650" height="375" viewBox="0 0 650 375" fill="none" xmlns="http://www.w3.org/2000/svg">
<g filter="url(#filter0_i_8_65)">
<path d="M451.347 12.9772C457.349 7.16865 476.323 5.40267 488.328 5.0389C500.332 4.67513 628.313 24.4007 640.317 30.79C652.321 37.1793 651.547 349.097 640.317 358.584C629.087 368.071 561.709 378.139 548.736 374.073C535.764 370.007 459.285 335.156 451.347 314.826C443.409 294.496 445.345 18.7858 451.347 12.9772Z" fill="#8FFF00"/>
</g>
<g filter="url(#filter1_i_8_65)">
<path fill-rule="evenodd" clip-rule="evenodd" d="M477.644 190.698C477.551 184.663 477.46 178.769 477.46 173.094C477.46 166.129 477.654 158.658 477.857 150.841V150.841V150.84V150.84V150.84C478.973 107.916 480.36 54.5455 451.369 17.0383C418.648 5.42123 310.772 0 240.568 0C172.91 0 86.005 2.96135 42.45 35.8191C0.853445 67.1995 0 118.671 0 165.736C0 215.516 6.63082 307.959 35.2861 327.794C58.3265 343.742 176.638 350.834 240.568 350.834H241.255C305.15 350.835 395.745 350.835 438.543 321.211C479.224 293.051 478.368 237.598 477.644 190.698ZM92.21 51.115C81.8376 51.115 73.4291 59.5234 73.4291 69.8958C73.4291 80.2682 81.8376 88.6767 92.21 88.6767H103.44C113.812 88.6767 122.221 80.2682 122.221 69.8958C122.221 59.5234 113.812 51.115 103.44 51.115H92.21ZM71.1052 122.947C71.1052 113.644 78.6469 106.102 87.9499 106.102H94.9201C104.223 106.102 111.765 113.644 111.765 122.947C111.765 132.25 104.223 139.791 94.9202 139.791H87.9499C78.6469 139.791 71.1052 132.25 71.1052 122.947ZM86.5946 164.962C77.3985 164.962 69.9436 172.417 69.9436 181.613C69.9436 190.809 77.3985 198.264 86.5946 198.264H93.9521C103.148 198.264 110.603 190.809 110.603 181.613C110.603 172.417 103.148 164.962 93.9521 164.962H86.5946ZM150.101 79.1787C150.101 62.6102 163.532 49.1787 180.101 49.1787H408.978C425.546 49.1787 438.978 62.6101 438.978 79.1787V151.613C438.978 168.181 425.546 181.613 408.978 181.613H180.101C163.532 181.613 150.101 168.181 150.101 151.613V79.1787ZM238.843 225.384C223.261 225.814 210.604 238.107 209.719 253.67L208.343 277.868C207.401 294.422 219.983 308.575 236.549 309.276C296.143 311.801 424.867 315.558 435.106 301.462C442.506 291.273 444.084 267.302 444.019 247.943C443.967 232.084 430.487 220.097 414.634 220.534L238.843 225.384Z" fill="#8FFF00"/>
</g>
<path d="M205.395 24.7334L201.678 33.3914V38.0084H200.139V33.3914L196.44 24.7334H198.06L201.237 32.4284H200.589L203.757 24.7334H205.395ZM210.642 38.1794C209.682 38.1794 208.833 37.9664 208.095 37.5404C207.363 37.1084 206.787 36.5204 206.367 35.7764C205.953 35.0264 205.746 34.1744 205.746 33.2204C205.746 32.2664 205.953 31.4204 206.367 30.6824C206.787 29.9444 207.363 29.3654 208.095 28.9454C208.833 28.5254 209.682 28.3154 210.642 28.3154C211.602 28.3154 212.448 28.5254 213.18 28.9454C213.918 29.3654 214.494 29.9444 214.908 30.6824C215.328 31.4204 215.538 32.2664 215.538 33.2204C215.538 34.1744 215.328 35.0264 214.908 35.7764C214.494 36.5204 213.918 37.1084 213.18 37.5404C212.448 37.9664 211.602 38.1794 210.642 38.1794ZM210.642 36.7754C211.302 36.7754 211.884 36.6284 212.388 36.3344C212.892 36.0404 213.285 35.6264 213.567 35.0924C213.855 34.5584 213.999 33.9344 213.999 33.2204C213.999 32.5064 213.855 31.8884 213.567 31.3664C213.285 30.8384 212.892 30.4334 212.388 30.1514C211.884 29.8634 211.302 29.7194 210.642 29.7194C209.988 29.7194 209.406 29.8634 208.896 30.1514C208.392 30.4334 207.996 30.8384 207.708 31.3664C207.426 31.8884 207.285 32.5064 207.285 33.2204C207.285 33.9344 207.426 34.5584 207.708 35.0924C207.996 35.6264 208.392 36.0404 208.896 36.3344C209.406 36.6284 209.988 36.7754 210.642 36.7754ZM221.455 38.1794C220.771 38.1794 220.201 38.0624 219.745 37.8284C219.289 37.5884 218.926 37.2794 218.656 36.9014C218.392 36.5234 218.203 36.1154 218.089 35.6774C217.981 35.2334 217.927 34.8074 217.927 34.3994C217.927 34.1714 217.927 33.9374 217.927 33.6974C217.927 33.4514 217.927 33.2054 217.927 32.9594V28.4504H219.466V32.7614C219.466 32.9834 219.466 33.2024 219.466 33.4184C219.466 33.6344 219.466 33.8384 219.466 34.0304C219.466 34.5164 219.532 34.9664 219.664 35.3804C219.802 35.7944 220.039 36.1304 220.375 36.3884C220.711 36.6404 221.173 36.7664 221.761 36.7664C222.313 36.7664 222.796 36.6014 223.21 36.2714C223.624 35.9354 223.948 35.5184 224.182 35.0204C224.416 34.5164 224.533 34.0154 224.533 33.5174L225.424 33.8864C225.424 34.4144 225.331 34.9334 225.145 35.4434C224.959 35.9474 224.692 36.4064 224.344 36.8204C224.002 37.2344 223.585 37.5644 223.093 37.8104C222.607 38.0564 222.061 38.1794 221.455 38.1794ZM224.533 38.0084V28.4504H226.063V38.0084H224.533ZM242.859 33.3914C242.859 33.9254 242.76 34.4744 242.562 35.0384C242.364 35.5964 242.064 36.1154 241.662 36.5954C241.266 37.0694 240.765 37.4534 240.159 37.7474C239.553 38.0414 238.842 38.1884 238.026 38.1884C236.904 38.1884 235.95 37.8974 235.164 37.3154C234.378 36.7274 233.778 35.9204 233.364 34.8944C232.956 33.8684 232.752 32.6954 232.752 31.3754C232.752 30.0494 232.956 28.8764 233.364 27.8564C233.778 26.8304 234.378 26.0264 235.164 25.4444C235.95 24.8624 236.904 24.5714 238.026 24.5714C238.962 24.5714 239.76 24.7634 240.42 25.1474C241.08 25.5314 241.605 26.0204 241.995 26.6144C242.385 27.2084 242.64 27.8204 242.76 28.4504C242.826 28.7684 242.859 29.0684 242.859 29.3504H241.32C241.32 29.1884 241.305 29.0024 241.275 28.7924C241.203 28.2884 241.029 27.8234 240.753 27.3974C240.483 26.9654 240.12 26.6204 239.664 26.3624C239.208 26.0984 238.662 25.9664 238.026 25.9664C237.282 25.9664 236.631 26.1704 236.073 26.5784C235.521 26.9864 235.089 27.5924 234.777 28.3964C234.471 29.2004 234.318 30.1934 234.318 31.3754C234.318 32.5574 234.471 33.5534 234.777 34.3634C235.089 35.1674 235.521 35.7764 236.073 36.1904C236.631 36.5984 237.282 36.8024 238.026 36.8024C238.56 36.8024 239.031 36.7064 239.439 36.5144C239.847 36.3164 240.189 36.0554 240.465 35.7314C240.747 35.4014 240.96 35.0354 241.104 34.6334C241.248 34.2254 241.32 33.8114 241.32 33.3914H242.859ZM248.477 38.1884C247.751 38.1884 247.115 38.0744 246.569 37.8464C246.029 37.6184 245.609 37.2914 245.309 36.8654C245.009 36.4334 244.859 35.9174 244.859 35.3174C244.859 34.6934 245.021 34.1744 245.345 33.7604C245.669 33.3404 246.125 33.0134 246.713 32.7794C247.301 32.5454 247.985 32.3894 248.765 32.3114C249.941 32.1914 250.778 32.0744 251.276 31.9604C251.774 31.8404 252.023 31.6484 252.023 31.3844C252.023 31.3784 252.023 31.3754 252.023 31.3754C252.023 31.3694 252.023 31.3634 252.023 31.3574C252.023 30.8054 251.798 30.3944 251.348 30.1244C250.898 29.8484 250.247 29.7104 249.395 29.7104C248.507 29.7104 247.817 29.8664 247.325 30.1784C246.833 30.4844 246.587 30.9824 246.587 31.6724H245.075C245.075 30.9584 245.258 30.3524 245.624 29.8544C245.99 29.3504 246.497 28.9664 247.145 28.7024C247.799 28.4384 248.552 28.3064 249.404 28.3064C250.184 28.3064 250.886 28.4264 251.51 28.6664C252.14 28.9004 252.638 29.2514 253.004 29.7194C253.376 30.1814 253.562 30.7544 253.562 31.4384C253.562 31.5644 253.562 31.6904 253.562 31.8164C253.562 31.9364 253.562 32.0594 253.562 32.1854V36.2084C253.562 36.4184 253.571 36.6224 253.589 36.8204C253.607 37.0184 253.637 37.1924 253.679 37.3424C253.733 37.5224 253.793 37.6694 253.859 37.7834C253.925 37.8914 253.979 37.9664 254.021 38.0084H252.482C252.452 37.9784 252.407 37.9094 252.347 37.8014C252.287 37.6874 252.23 37.5554 252.176 37.4054C252.134 37.2854 252.101 37.1354 252.077 36.9554C252.053 36.7694 252.041 36.5774 252.041 36.3794L252.293 36.5504C252.107 36.8744 251.834 37.1594 251.474 37.4054C251.12 37.6514 250.691 37.8434 250.187 37.9814C249.683 38.1194 249.113 38.1884 248.477 38.1884ZM248.72 36.8114C249.338 36.8114 249.896 36.7184 250.394 36.5324C250.892 36.3404 251.288 36.0584 251.582 35.6864C251.876 35.3144 252.023 34.8524 252.023 34.3004V32.4014L252.365 32.9774C251.981 33.1274 251.501 33.2504 250.925 33.3464C250.355 33.4364 249.758 33.5114 249.134 33.5714C248.228 33.6554 247.544 33.8144 247.082 34.0484C246.626 34.2824 246.398 34.6754 246.398 35.2274C246.398 35.7494 246.587 36.1454 246.965 36.4154C247.343 36.6794 247.928 36.8114 248.72 36.8114ZM262.947 38.0084V33.4274C262.947 33.1514 262.947 32.9264 262.947 32.7524C262.947 32.5724 262.947 32.4014 262.947 32.2394C262.947 31.7414 262.863 31.3064 262.695 30.9344C262.527 30.5624 262.263 30.2744 261.903 30.0704C261.543 29.8664 261.072 29.7644 260.49 29.7644C259.98 29.7644 259.506 29.8964 259.068 30.1604C258.636 30.4184 258.288 30.7694 258.024 31.2134C257.766 31.6514 257.637 32.1434 257.637 32.6894L256.764 32.3564C256.764 31.6064 256.947 30.9254 257.313 30.3134C257.685 29.7014 258.177 29.2154 258.789 28.8554C259.407 28.4894 260.079 28.3064 260.805 28.3064C261.543 28.3064 262.188 28.4474 262.74 28.7294C263.292 29.0114 263.718 29.4164 264.018 29.9444C264.324 30.4664 264.477 31.0964 264.477 31.8344C264.477 32.0984 264.477 32.3864 264.477 32.6984C264.477 33.0104 264.477 33.3014 264.477 33.5714V38.0084H262.947ZM256.107 38.0084V28.4504H257.637V38.0084H256.107ZM279.458 26.0834H275.624L275.975 25.2104V38.0084H274.445V25.2104L274.877 26.0834H270.971V24.7334H279.458V26.0834ZM288.391 38.0084V34.4534C288.391 34.2854 288.391 34.0874 288.391 33.8594C288.391 33.6254 288.391 33.3914 288.391 33.1574C288.391 32.9174 288.391 32.7134 288.391 32.5454C288.391 31.6274 288.193 30.9344 287.797 30.4664C287.407 29.9984 286.786 29.7644 285.934 29.7644C285.364 29.7644 284.863 29.8754 284.431 30.0974C284.005 30.3194 283.672 30.6224 283.432 31.0064C283.192 31.3904 283.072 31.8254 283.072 32.3114L282.1 32.0144C282.1 31.3304 282.277 30.7094 282.631 30.1514C282.991 29.5874 283.48 29.1404 284.098 28.8104C284.722 28.4744 285.427 28.3064 286.213 28.3064C287.359 28.3064 288.262 28.6514 288.922 29.3414C289.588 30.0314 289.921 30.9854 289.921 32.2034C289.921 32.5214 289.921 32.8874 289.921 33.3014C289.921 33.7154 289.921 34.1504 289.921 34.6064V38.0084H288.391ZM281.542 38.0084V23.9414H283.072V38.0084H281.542ZM292.671 38.0084V28.4504H294.183V38.0084H292.671ZM293.436 26.2544C293.154 26.2544 292.908 26.1764 292.698 26.0204C292.494 25.8584 292.392 25.6394 292.392 25.3634C292.392 25.0934 292.494 24.8804 292.698 24.7244C292.908 24.5624 293.154 24.4814 293.436 24.4814C293.718 24.4814 293.961 24.5624 294.165 24.7244C294.369 24.8804 294.471 25.0934 294.471 25.3634C294.471 25.6394 294.369 25.8584 294.165 26.0204C293.961 26.1764 293.718 26.2544 293.436 26.2544ZM303.869 38.0084V33.4274C303.869 33.1514 303.869 32.9264 303.869 32.7524C303.869 32.5724 303.869 32.4014 303.869 32.2394C303.869 31.7414 303.785 31.3064 303.617 30.9344C303.449 30.5624 303.185 30.2744 302.825 30.0704C302.465 29.8664 301.994 29.7644 301.412 29.7644C300.902 29.7644 300.428 29.8964 299.99 30.1604C299.558 30.4184 299.21 30.7694 298.946 31.2134C298.688 31.6514 298.559 32.1434 298.559 32.6894L297.686 32.3564C297.686 31.6064 297.869 30.9254 298.235 30.3134C298.607 29.7014 299.099 29.2154 299.711 28.8554C300.329 28.4894 301.001 28.3064 301.727 28.3064C302.465 28.3064 303.11 28.4474 303.662 28.7294C304.214 29.0114 304.64 29.4164 304.94 29.9444C305.246 30.4664 305.399 31.0964 305.399 31.8344C305.399 32.0984 305.399 32.3864 305.399 32.6984C305.399 33.0104 305.399 33.3014 305.399 33.5714V38.0084H303.869ZM297.029 38.0084V28.4504H298.559V38.0084H297.029ZM308.068 38.0084V23.9414H309.526V32.5634L309.085 32.3654L313.657 28.4504H315.637L311.056 32.4824L311.461 31.6994L315.673 38.0084H314.026L310.471 32.5454L310.786 32.7254L309.301 34.0124L309.526 33.2834V38.0084H308.068ZM323.245 38.0084H321.706V24.7334H325.432C326.458 24.7334 327.31 24.9254 327.988 25.3094C328.666 25.6874 329.173 26.1974 329.509 26.8394C329.845 27.4814 330.013 28.1954 330.013 28.9814C330.013 29.7674 329.839 30.4934 329.491 31.1594C329.149 31.8254 328.636 32.3624 327.952 32.7704C327.274 33.1724 326.434 33.3734 325.432 33.3734H323.245V38.0084ZM323.245 32.8064L322.552 32.0234H325.243C325.963 32.0234 326.56 31.8974 327.034 31.6454C327.514 31.3874 327.871 31.0304 328.105 30.5744C328.345 30.1184 328.465 29.5874 328.465 28.9814C328.465 28.3694 328.351 27.8474 328.123 27.4154C327.895 26.9834 327.544 26.6534 327.07 26.4254C326.596 26.1974 325.987 26.0834 325.243 26.0834H322.552L323.245 25.2104V32.8064ZM335.032 38.1884C334.306 38.1884 333.67 38.0744 333.124 37.8464C332.584 37.6184 332.164 37.2914 331.864 36.8654C331.564 36.4334 331.414 35.9174 331.414 35.3174C331.414 34.6934 331.576 34.1744 331.9 33.7604C332.224 33.3404 332.68 33.0134 333.268 32.7794C333.856 32.5454 334.54 32.3894 335.32 32.3114C336.496 32.1914 337.333 32.0744 337.831 31.9604C338.329 31.8404 338.578 31.6484 338.578 31.3844C338.578 31.3784 338.578 31.3754 338.578 31.3754C338.578 31.3694 338.578 31.3634 338.578 31.3574C338.578 30.8054 338.353 30.3944 337.903 30.1244C337.453 29.8484 336.802 29.7104 335.95 29.7104C335.062 29.7104 334.372 29.8664 333.88 30.1784C333.388 30.4844 333.142 30.9824 333.142 31.6724H331.63C331.63 30.9584 331.813 30.3524 332.179 29.8544C332.545 29.3504 333.052 28.9664 333.7 28.7024C334.354 28.4384 335.107 28.3064 335.959 28.3064C336.739 28.3064 337.441 28.4264 338.065 28.6664C338.695 28.9004 339.193 29.2514 339.559 29.7194C339.931 30.1814 340.117 30.7544 340.117 31.4384C340.117 31.5644 340.117 31.6904 340.117 31.8164C340.117 31.9364 340.117 32.0594 340.117 32.1854V36.2084C340.117 36.4184 340.126 36.6224 340.144 36.8204C340.162 37.0184 340.192 37.1924 340.234 37.3424C340.288 37.5224 340.348 37.6694 340.414 37.7834C340.48 37.8914 340.534 37.9664 340.576 38.0084H339.037C339.007 37.9784 338.962 37.9094 338.902 37.8014C338.842 37.6874 338.785 37.5554 338.731 37.4054C338.689 37.2854 338.656 37.1354 338.632 36.9554C338.608 36.7694 338.596 36.5774 338.596 36.3794L338.848 36.5504C338.662 36.8744 338.389 37.1594 338.029 37.4054C337.675 37.6514 337.246 37.8434 336.742 37.9814C336.238 38.1194 335.668 38.1884 335.032 38.1884ZM335.275 36.8114C335.893 36.8114 336.451 36.7184 336.949 36.5324C337.447 36.3404 337.843 36.0584 338.137 35.6864C338.431 35.3144 338.578 34.8524 338.578 34.3004V32.4014L338.92 32.9774C338.536 33.1274 338.056 33.2504 337.48 33.3464C336.91 33.4364 336.313 33.5114 335.689 33.5714C334.783 33.6554 334.099 33.8144 333.637 34.0484C333.181 34.2824 332.953 34.6754 332.953 35.2274C332.953 35.7494 333.142 36.1454 333.52 36.4154C333.898 36.6794 334.483 36.8114 335.275 36.8114ZM346.604 38.1884C345.818 38.1884 345.098 37.9994 344.444 37.6214C343.79 37.2374 343.268 36.6764 342.878 35.9384C342.488 35.1944 342.293 34.2884 342.293 33.2204C342.293 32.1704 342.491 31.2794 342.887 30.5474C343.283 29.8154 343.808 29.2604 344.462 28.8824C345.116 28.4984 345.83 28.3064 346.604 28.3064C347.342 28.3064 348.032 28.4834 348.674 28.8374C349.322 29.1854 349.844 29.6714 350.24 30.2954C350.636 30.9194 350.834 31.6424 350.834 32.4644C350.834 32.4824 350.834 32.5004 350.834 32.5184C350.834 32.5364 350.834 32.5544 350.834 32.5724L349.736 32.6174C349.736 32.5994 349.736 32.5814 349.736 32.5634C349.736 32.5394 349.736 32.5184 349.736 32.5004C349.736 31.9784 349.598 31.5074 349.322 31.0874C349.052 30.6674 348.695 30.3344 348.251 30.0884C347.807 29.8364 347.33 29.7104 346.82 29.7104C345.968 29.7104 345.263 29.9984 344.705 30.5744C344.147 31.1444 343.868 32.0264 343.868 33.2204C343.868 34.4084 344.147 35.2934 344.705 35.8754C345.269 36.4514 345.974 36.7394 346.82 36.7394C347.354 36.7394 347.84 36.6104 348.278 36.3524C348.722 36.0944 349.076 35.7494 349.34 35.3174C349.604 34.8794 349.736 34.3904 349.736 33.8504L350.834 33.8774C350.834 34.6934 350.645 35.4284 350.267 36.0824C349.889 36.7304 349.379 37.2434 348.737 37.6214C348.101 37.9994 347.39 38.1884 346.604 38.1884ZM349.736 38.0084V23.9414H351.275V38.0084H349.736Z" fill="#000AFF"/>
<defs>
<filter id="filter0_i_8_65" x="436.094" y="5.03394" width="212.938" height="369.966" filterUnits="userSpaceOnUse" color-interpolation-filters="sRGB">
<feFlood flood-opacity="0" result="BackgroundImageFix"/>
<feBlend mode="normal" in="SourceGraphic" in2="BackgroundImageFix" result="shape"/>
<feColorMatrix in="SourceAlpha" type="matrix" values="0 0 0 0 0 0 0 0 0 0 0 0 0 0 0 0 0 0 127 0" result="hardAlpha"/>
<feOffset dx="-10"/>
<feGaussianBlur stdDeviation="15"/>
<feComposite in2="hardAlpha" operator="arithmetic" k2="-1" k3="1"/>
<feColorMatrix type="matrix" values="0 0 0 0 0 0 0 0 0 0 0 0 0 0 0 0 0 0 0.25 0"/>
<feBlend mode="normal" in2="shape" result="effect1_innerShadow_8_65"/>
</filter>
<filter id="filter1_i_8_65" x="0" y="0" width="488.314" height="350.834" filterUnits="userSpaceOnUse" color-interpolation-filters="sRGB">
<feFlood flood-opacity="0" result="BackgroundImageFix"/>
<feBlend mode="normal" in="SourceGraphic" in2="BackgroundImageFix" result="shape"/>
<feColorMatrix in="SourceAlpha" type="matrix" values="0 0 0 0 0 0 0 0 0 0 0 0 0 0 0 0 0 0 127 0" result="hardAlpha"/>
<feOffset dx="10"/>
<feGaussianBlur stdDeviation="10"/>
<feComposite in2="hardAlpha" operator="arithmetic" k2="-1" k3="1"/>
<feColorMatrix type="matrix" values="0 0 0 0 0 0 0 0 0 0 0 0 0 0 0 0 0 0 0.25 0"/>
<feBlend mode="multiply" in2="shape" result="effect1_innerShadow_8_65"/>
</filter>
</defs>
</svg>
